<svg width="1894" height="968" viewBox="0 0 1894 968" fill="none" xmlns="http://www.w3.org/2000/svg">
<path fill-rule="evenodd" clip-rule="evenodd" d="M1772.08 0C1705.15 0 1651 54.1469 1651 121.083C1651 187.853 1705.15 242.166 1772.08 242.166C1838.85 242.166 1893.17 188.019 1893.17 121.083C1893 54.1469 1838.85 0 1772.08 0ZM1772.08 234.36C1709.47 234.36 1658.81 183.701 1658.81 121.083C1658.81 58.4653 1709.47 7.80645 1772.08 7.80645C1834.7 7.80645 1885.36 58.4653 1885.36 121.083C1885.36 183.535 1834.53 234.36 1772.08 234.36ZM50.4739 933.496H60.0009L60.0009 908H34.547V917.588H50.4739L50.4739 933.496ZM33.1613 950.711H42.7611V925.288H17.2344L17.2344 934.803H33.1613V950.711ZM25.5267 968H15.9269V952.092H0V942.504H25.5267V968ZM1677.24 120.916C1677.24 68.5961 1719.76 26.0758 1772.08 26.0758C1824.4 26.0758 1866.92 68.5961 1866.92 121.082C1866.92 173.402 1824.4 215.756 1772.08 215.756C1719.76 215.756 1677.24 173.236 1677.24 120.916ZM1691.69 120.916C1691.69 165.263 1727.74 201.306 1772.08 201.306C1816.43 201.306 1852.47 165.263 1852.47 120.916C1852.47 76.5686 1816.43 40.5261 1772.08 40.5261C1727.74 40.5261 1691.69 76.5686 1691.69 120.916Z" fill="#FFCF2D" fill-opacity="0.3"/>
</svg>
