<svg width="465" height="400" viewBox="0 0 465 400" fill="none" xmlns="http://www.w3.org/2000/svg">
<path d="M260.837 382.823C260.561 382.823 260.35 382.612 260.35 382.336C260.35 376.149 265.38 371.116 271.562 371.116H276.657C286.637 371.116 294.766 362.981 294.766 352.995V274.65C294.766 264.664 286.637 256.529 276.657 256.529H263.693C263.417 256.529 263.206 256.318 263.206 256.042C263.206 255.766 263.417 255.555 263.693 255.555H276.657C287.172 255.555 295.74 264.128 295.74 274.65V352.995C295.74 363.517 287.172 372.09 276.657 372.09H271.562C265.916 372.09 261.324 376.685 261.324 382.336C261.324 382.612 261.113 382.823 260.837 382.823Z" fill="#66B0F0"/>
<path d="M261.324 397.712C266.432 397.712 270.573 393.568 270.573 388.456C270.573 383.345 266.432 379.201 261.324 379.201C256.216 379.201 252.075 383.345 252.075 388.456C252.075 393.568 256.216 397.712 261.324 397.712Z" fill="white"/>
<path d="M261.324 398.2C255.953 398.2 251.588 393.832 251.588 388.457C251.588 383.083 255.953 378.715 261.324 378.715C266.694 378.715 271.059 383.083 271.059 388.457C271.059 393.832 266.694 398.2 261.324 398.2ZM261.324 379.689C256.488 379.689 252.561 383.619 252.561 388.457C252.561 393.296 256.488 397.225 261.324 397.225C266.159 397.225 270.086 393.296 270.086 388.457C270.086 383.619 266.159 379.689 261.324 379.689Z" fill="#66B0F0"/>
<path d="M259.507 256.04H338.837C342.407 256.04 345.295 253.15 345.295 249.578V244.138C345.295 240.566 342.407 237.676 338.837 237.676H259.507C255.402 237.676 252.075 241.004 252.075 245.112V248.587C252.075 252.711 255.402 256.04 259.507 256.04Z" fill="#D0F0E4"/>
<path d="M338.836 256.528H259.506C255.141 256.528 251.588 252.972 251.588 248.588V245.113C251.588 240.745 255.141 237.189 259.506 237.189H338.836C342.666 237.189 345.781 240.307 345.781 244.139V249.579C345.781 253.411 342.666 256.528 338.836 256.528ZM259.506 238.164C255.677 238.164 252.561 241.281 252.561 245.113V248.588C252.561 252.436 255.677 255.554 259.506 255.554H338.836C342.13 255.554 344.808 252.875 344.808 249.579V244.139C344.808 240.843 342.13 238.164 338.836 238.164H259.506Z" fill="#66B0F0"/>
<path d="M336.581 382.823C336.305 382.823 336.095 382.612 336.095 382.336C336.095 376.685 331.503 372.09 325.856 372.09H320.761C310.246 372.09 301.679 363.517 301.679 352.995V274.65C301.679 264.128 310.246 255.555 320.761 255.555H333.725C334.001 255.555 334.212 255.766 334.212 256.042C334.212 256.318 334.001 256.529 333.725 256.529H320.761C310.782 256.529 302.652 264.664 302.652 274.65V352.995C302.652 362.981 310.782 371.116 320.761 371.116H325.856C332.038 371.116 337.068 376.149 337.068 382.336C337.068 382.612 336.857 382.823 336.581 382.823Z" fill="#66B0F0"/>
<path d="M336.111 397.712C341.219 397.712 345.36 393.568 345.36 388.456C345.36 383.345 341.219 379.201 336.111 379.201C331.003 379.201 326.862 383.345 326.862 388.456C326.862 393.568 331.003 397.712 336.111 397.712Z" fill="white"/>
<path d="M336.111 398.2C330.74 398.2 326.375 393.832 326.375 388.457C326.375 383.083 330.74 378.715 336.111 378.715C341.482 378.715 345.847 383.083 345.847 388.457C345.847 393.832 341.482 398.2 336.111 398.2ZM336.111 379.689C331.275 379.689 327.349 383.619 327.349 388.457C327.349 393.296 331.275 397.225 336.111 397.225C340.946 397.225 344.873 393.296 344.873 388.457C344.873 383.619 340.946 379.689 336.111 379.689Z" fill="#66B0F0"/>
<path d="M189.344 362.703L195.186 374.67C197.149 378.697 198.171 383.097 198.171 387.546V396.623C198.171 398.198 196.857 399.481 195.234 399.481H128.512C126.743 399.481 125.315 398.084 125.315 396.363V393.554C125.315 392.417 125.948 391.378 126.97 390.826C133.899 387.108 156.275 375.482 160.607 363.06L189.344 362.703Z" fill="white"/>
<path d="M195.234 399.968H128.511C126.483 399.968 124.828 398.344 124.828 396.363V393.554C124.828 392.239 125.558 391.037 126.743 390.404L127.473 390.015C131.302 387.969 138.442 384.137 145.176 379.33C153.354 373.469 158.4 367.948 160.153 362.914L160.266 362.59L189.652 362.232L195.623 374.475C197.603 378.551 198.657 383.081 198.657 387.563V396.639C198.657 398.474 197.116 399.968 195.234 399.968ZM160.948 363.548C156.437 375.612 135.765 386.686 127.927 390.859L127.197 391.249C126.337 391.719 125.802 392.596 125.802 393.554V396.363C125.802 397.808 127.019 398.994 128.511 398.994H195.234C196.58 398.994 197.684 397.938 197.684 396.623V387.546C197.684 383.195 196.662 378.827 194.747 374.881L189.035 363.19L160.948 363.548Z" fill="#FFCF2D"/>
<path d="M197.765 382.709H192.541C187.705 382.709 183.21 385.161 180.679 389.171L178.456 392.711C177.126 394.822 174.773 396.105 172.241 396.105H125.348" fill="white"/>
<path d="M172.241 396.591H125.348V395.617H172.241C174.594 395.617 176.817 394.399 178.05 392.45L180.273 388.911C182.886 384.786 187.575 382.221 192.541 382.221H197.765V383.195H192.541C187.9 383.195 183.519 385.582 181.085 389.43L178.862 392.97C177.434 395.243 174.967 396.591 172.241 396.591Z" fill="#FFCF2D"/>
<path d="M193.725 371.682C188.711 371.845 182.058 371.325 174.026 369.864C168.752 368.906 163.738 367.444 159.374 365.804C159.877 364.895 160.282 363.986 160.607 363.077L189.343 362.703L193.725 371.682Z" fill="#FFCF2D"/>
<path d="M146.701 379.249C146.685 379.249 146.668 379.249 146.652 379.249C146.474 379.233 146.311 379.103 146.246 378.925L142.969 369.556C142.401 367.916 142.677 366.097 143.699 364.701C144.721 363.304 146.376 362.492 148.096 362.541C150.011 362.59 151.698 363.629 152.591 365.334C153.499 367.023 153.418 369.004 152.396 370.627L147.106 379.022C147.025 379.168 146.863 379.249 146.701 379.249ZM147.934 363.515C146.555 363.515 145.305 364.149 144.478 365.285C143.634 366.438 143.407 367.883 143.877 369.247L146.814 377.658L151.569 370.124C152.396 368.809 152.461 367.185 151.731 365.805C151.001 364.425 149.621 363.58 148.064 363.532C148.031 363.515 147.983 363.515 147.934 363.515Z" fill="#FE5244"/>
<path d="M138.344 380.955C137.306 380.955 136.284 380.565 135.521 379.834C134.548 378.909 134.093 377.561 134.288 376.23C134.515 374.752 135.472 373.567 136.868 373.031C138.263 372.495 139.789 372.739 140.941 373.697L146.717 378.454C146.863 378.568 146.928 378.763 146.879 378.941C146.831 379.12 146.685 379.266 146.506 379.298L139.188 380.873C138.912 380.922 138.637 380.955 138.344 380.955ZM138.344 373.713C137.971 373.713 137.582 373.778 137.209 373.924C136.154 374.33 135.424 375.239 135.245 376.36C135.083 377.383 135.424 378.389 136.186 379.104C136.949 379.818 137.971 380.11 138.977 379.899L145.305 378.535L140.308 374.411C139.756 373.956 139.058 373.713 138.344 373.713Z" fill="#FE5244"/>
<path d="M159.016 379.054H145.889C145.613 379.054 145.402 378.843 145.402 378.567C145.402 378.291 145.613 378.08 145.889 378.08H159.016C159.292 378.08 159.503 378.291 159.503 378.567C159.503 378.843 159.292 379.054 159.016 379.054Z" fill="#FE5244"/>
<path d="M155.171 382.724H142.06C141.784 382.724 141.573 382.513 141.573 382.237C141.573 381.961 141.784 381.75 142.06 381.75H155.171C155.447 381.75 155.658 381.961 155.658 382.237C155.658 382.513 155.447 382.724 155.171 382.724Z" fill="#FE5244"/>
<path d="M164.566 375.207H151.779C151.503 375.207 151.292 374.996 151.292 374.72C151.292 374.444 151.503 374.232 151.779 374.232H164.566C164.841 374.232 165.052 374.444 165.052 374.72C165.052 374.996 164.841 375.207 164.566 375.207Z" fill="#FE5244"/>
<path d="M267.344 195.344L237.245 206.743L208.297 357.604C207.129 360.364 191.779 364.326 177.451 364.326C162.36 364.326 150.142 360.121 150.142 357.149L167.926 218.58C170.246 200.297 185.791 186.576 204.224 186.576H266.776L267.068 195.328L267.344 195.344Z" fill="white"/>
<path d="M177.45 364.814C170.489 364.814 163.593 363.921 157.995 362.313C155.48 361.583 149.655 359.634 149.655 357.15V357.085L167.439 218.516C168.575 209.553 172.939 201.32 179.706 195.361C186.488 189.386 195.186 186.09 204.224 186.09H267.246L267.538 194.874L269.648 195.004L237.666 207.117L208.767 357.767L208.751 357.816C207.826 359.991 200.865 361.81 197.928 362.492C191.486 363.97 184.038 364.814 177.45 364.814ZM150.628 357.182C150.677 358.173 153.062 359.894 158.271 361.388C163.772 362.979 170.587 363.84 177.45 363.84C183.957 363.84 191.34 362.995 197.701 361.534C204.045 360.073 207.339 358.449 207.826 357.458L236.806 206.386L266.565 195.118L266.289 187.064H204.207C195.413 187.064 186.943 190.263 180.339 196.092C173.751 201.905 169.499 209.926 168.396 218.646L150.628 357.182Z" fill="#3FB1B5"/>
<path d="M176.622 364.782C176.605 364.782 176.573 364.782 176.557 364.782C176.297 364.75 176.102 364.506 176.135 364.23L193.692 227.431C194.876 218.11 199.63 210.138 207.435 204.374C215.646 198.301 226.826 195.086 239.742 195.086C240.018 195.086 240.228 195.297 240.228 195.573C240.228 195.849 240.018 196.06 239.742 196.06C227.037 196.06 216.051 199.21 208.019 205.153C200.426 210.771 195.817 218.516 194.665 227.561L177.108 364.36C177.076 364.604 176.865 364.782 176.622 364.782Z" fill="#3FB1B5"/>
<path d="M253.372 193.721L220.968 292.882L208.344 252.484C200.556 226.65 214.591 193.721 253.372 193.721Z" fill="#3FB1B5"/>
<path d="M288.908 362.104L300.575 391.184C302.197 395.211 299.001 399.514 294.392 399.514H250.452C248.277 399.514 246.509 397.874 246.509 395.828V392.906C246.509 391.574 246.931 390.291 247.742 389.187L255.449 380.76C259.944 375.856 262.41 369.605 262.41 363.159V363.078L288.908 362.104Z" fill="white"/>
<path d="M294.392 400.001H250.451C248.001 400.001 246.021 398.134 246.021 395.828V392.905C246.021 391.46 246.476 390.08 247.352 388.895L247.385 388.862L255.092 380.435C259.505 375.629 261.923 369.491 261.923 363.158V362.606L289.232 361.6L301.028 391.005C301.823 392.97 301.596 395.13 300.396 396.9C299.081 398.848 296.842 400.001 294.392 400.001ZM248.115 389.495C247.385 390.502 246.995 391.687 246.995 392.905V395.828C246.995 397.598 248.553 399.027 250.451 399.027H294.392C296.517 399.027 298.448 398.036 299.584 396.364C300.606 394.854 300.801 393.035 300.12 391.379L288.583 362.623L262.897 363.564C262.799 369.994 260.284 376.213 255.806 381.101L248.115 389.495Z" fill="#FFCF2D"/>
<path d="M249.365 387.464C251.799 386.327 254.476 385.727 257.202 385.727H271.303C273.801 385.727 276.268 386.23 278.54 387.204L283.699 389.396" fill="white"/>
<path d="M283.504 389.852L278.344 387.66C276.121 386.702 273.752 386.214 271.302 386.214H257.201C254.573 386.214 251.944 386.799 249.575 387.903L249.169 387.026C251.668 385.857 254.443 385.24 257.218 385.24H271.318C273.898 385.24 276.397 385.744 278.75 386.75L283.91 388.942L283.504 389.852Z" fill="#FFCF2D"/>
<path d="M289.459 363.435C288.55 367.023 276.494 369.881 261.76 369.881H261.517C262.117 367.689 262.426 365.432 262.426 363.143V363.061L288.923 362.104L289.459 363.435Z" fill="#FFCF2D"/>
<path d="M266.516 377.122C266.337 377.122 266.175 377.025 266.094 376.862C266.013 376.7 266.013 376.505 266.11 376.359L271.205 368.646C271.205 368.63 271.222 368.63 271.222 368.614C272.276 367.25 273.931 366.503 275.635 366.584C277.355 366.682 278.897 367.623 279.789 369.085C280.779 370.708 280.811 372.673 279.886 374.329C278.961 375.986 277.29 376.992 275.375 377.025L266.516 377.122ZM272 369.198L267.425 376.132L275.392 376.067C276.933 376.051 278.312 375.222 279.059 373.875C279.805 372.527 279.773 370.936 278.978 369.604C278.248 368.386 277.014 367.64 275.603 367.575C274.175 367.493 272.877 368.094 272 369.198Z" fill="#FE5244"/>
<path d="M259.1 377.172C257.786 377.172 256.537 376.522 255.774 375.434C255.011 374.33 254.833 372.934 255.303 371.683C255.806 370.303 256.991 369.329 258.435 369.102C259.895 368.858 261.323 369.41 262.248 370.563L266.889 376.327C267.003 376.473 267.035 376.668 266.954 376.847C266.873 377.009 266.71 377.123 266.516 377.123L259.117 377.172H259.1ZM259.1 370.027C258.938 370.027 258.76 370.043 258.581 370.076C257.478 370.254 256.585 370.985 256.196 372.041C255.839 373.015 255.969 374.038 256.553 374.898C257.137 375.743 258.062 376.214 259.068 376.214H259.084L265.477 376.165L261.469 371.18C260.902 370.433 260.025 370.027 259.1 370.027Z" fill="#FE5244"/>
<path d="M280.81 380.435H261.582C261.306 380.435 261.095 380.224 261.095 379.948C261.095 379.672 261.306 379.461 261.582 379.461H280.81C281.086 379.461 281.297 379.672 281.297 379.948C281.297 380.224 281.086 380.435 280.81 380.435Z" fill="#FE5244"/>
<path d="M299.098 354.373C299.098 357.896 286.376 364.505 273.103 364.505C261.177 364.505 251.295 362.134 249.429 359.13L216.62 254.107C207.517 223.955 230.071 193.558 261.534 193.558H266.921L266.158 166.475H333.53L340.166 194.029C345.521 216.274 328.678 238.227 305.815 238.227H275.569L299.098 354.373Z" fill="white"/>
<path d="M273.103 364.993C261.16 364.993 251.035 362.639 249.023 359.391L248.991 359.342L248.974 359.277L216.165 254.254C213.926 246.85 213.504 239.316 214.899 231.831C216.214 224.8 219.183 218.029 223.483 212.232C227.783 206.435 233.397 201.645 239.742 198.349C246.476 194.842 253.81 193.072 261.534 193.072H266.418L265.655 165.988H333.903L334 166.362L340.636 193.916C343.249 204.795 340.75 216.129 333.773 225.011C326.909 233.714 316.735 238.715 305.815 238.715H276.17L299.584 354.325V354.374C299.584 356.761 295.284 359.472 291.276 361.21C285.711 363.613 279.09 364.993 273.103 364.993ZM249.867 358.92C250.743 360.235 253.55 361.534 257.591 362.46C261.923 363.45 267.424 364.002 273.087 364.002C278.944 364.002 285.419 362.655 290.871 360.3C296.112 358.027 298.546 355.673 298.594 354.406L274.953 237.725H305.799C316.411 237.725 326.325 232.87 332.994 224.394C339.793 215.756 342.227 204.731 339.679 194.128L333.14 166.946H266.645L267.407 194.03H261.517C253.956 194.03 246.768 195.768 240.18 199.194C233.965 202.425 228.464 207.117 224.246 212.8C220.027 218.484 217.122 225.108 215.84 232.009C214.477 239.332 214.883 246.72 217.074 253.962L249.867 358.92Z" fill="#3FB1B5"/>
<path d="M278.182 364.489C277.971 364.489 277.777 364.359 277.712 364.148L246.703 264.873C243.88 256.706 242.517 249.318 242.663 242.969C242.809 236.718 244.415 231.408 247.433 227.17C250.257 223.208 254.33 220.172 259.538 218.142C264.698 216.145 270.994 215.122 278.28 215.122H305.394C313.701 215.122 320.452 208.367 320.452 200.054V166.54C320.452 166.264 320.662 166.053 320.938 166.053C321.214 166.053 321.425 166.264 321.425 166.54V200.054C321.425 208.903 314.237 216.096 305.394 216.096H278.28C271.124 216.096 264.942 217.087 259.895 219.035C254.865 220.984 250.938 223.906 248.229 227.706C245.324 231.781 243.783 236.912 243.637 242.969C243.49 249.204 244.837 256.478 247.628 264.548L278.636 363.84C278.718 364.099 278.572 364.375 278.312 364.457C278.28 364.489 278.231 364.489 278.182 364.489Z" fill="#3FB1B5"/>
<path d="M433.494 207.473H6.25093C4.56914 207.473 3.93502 204.875 5.35489 203.82L80.8975 160.531H362.252L434.266 204.405C435.451 205.33 434.9 207.473 433.494 207.473Z" fill="white"/>
<path d="M433.494 207.96H6.25076C5.29958 207.96 4.51383 207.262 4.23812 206.174C3.9762 205.086 4.32083 203.998 5.13416 203.397C5.14794 203.381 5.16173 203.381 5.17551 203.365L80.7181 160.076C80.7732 160.044 80.8422 160.027 80.8973 160.027H362.252C362.321 160.027 362.39 160.044 362.445 160.076L434.459 203.949C434.473 203.949 434.486 203.966 434.5 203.982C435.189 204.518 435.493 205.476 435.258 206.417C435.01 207.359 434.321 207.96 433.494 207.96ZM5.5615 204.242C4.98253 204.68 4.91359 205.394 5.03766 205.898C5.16173 206.417 5.54772 206.969 6.25076 206.969H433.494C434.045 206.969 434.348 206.531 434.459 206.125C434.555 205.719 434.514 205.167 434.059 204.794L362.156 160.985H80.9938L5.5615 204.242Z" fill="#66B0F0"/>
<path d="M422.094 202.65H17.1141C15.2393 202.65 14.5225 199.744 16.1215 198.558L81.3115 161.018H361.605L423.128 198.591C424.672 199.792 423.955 202.65 422.094 202.65Z" fill="#D0F0E4"/>
<path d="M0.40658 398.195C0.379009 398.195 0.365224 398.195 0.337654 398.195C0.117092 398.146 -0.034548 397.902 0.00680736 397.626L28.0595 207.39C28.1009 207.13 28.3077 206.951 28.542 207C28.7626 207.049 28.9142 207.292 28.8729 207.569L0.820133 397.789C0.778778 398.032 0.599571 398.195 0.40658 398.195Z" fill="#66B0F0"/>
<path d="M71.1401 398.195C70.9471 398.195 70.7679 398.033 70.7265 397.789L42.6738 207.553C42.6324 207.293 42.7841 207.033 43.0046 206.985C43.2252 206.936 43.4458 207.114 43.4871 207.374L71.5398 397.611C71.5812 397.871 71.4296 398.13 71.209 398.179C71.1814 398.195 71.1676 398.195 71.1401 398.195Z" fill="#66B0F0"/>
<path d="M367.464 398.195C367.437 398.195 367.423 398.195 367.395 398.195C367.175 398.146 367.023 397.902 367.064 397.626L395.117 207.39C395.159 207.13 395.365 206.951 395.6 207C395.82 207.049 395.972 207.292 395.93 207.569L367.878 397.805C367.836 398.032 367.657 398.195 367.464 398.195Z" fill="#66B0F0"/>
<path d="M438.195 398.195C438.002 398.195 437.823 398.033 437.781 397.789L409.728 207.553C409.687 207.293 409.839 207.033 410.059 206.985C410.28 206.936 410.5 207.114 410.542 207.374L438.595 397.611C438.636 397.871 438.484 398.13 438.264 398.179C438.236 398.195 438.222 398.195 438.195 398.195Z" fill="#66B0F0"/>
<path d="M375.196 333.962H407.356C408.362 330.358 411.656 327.711 415.583 327.711H383.422C379.496 327.711 376.202 330.358 375.196 333.962Z" fill="#3FB1B5"/>
<path d="M383.698 328.23C388.404 328.23 392.233 332.062 392.233 336.771V345.312H424.394V336.771C424.394 332.046 420.564 328.23 415.859 328.23H383.698Z" fill="white"/>
<path d="M424.88 345.8H391.746V336.772C391.746 332.339 388.144 328.718 383.698 328.718V327.744H415.859C420.84 327.744 424.88 331.787 424.88 336.772V345.8ZM392.72 344.826H423.907V336.772C423.907 332.339 420.288 328.718 415.859 328.718H387.771C390.708 330.212 392.72 333.265 392.72 336.772V344.826Z" fill="#3FB1B5"/>
<path d="M440.848 333.295H411.495L413.28 341.446H442.633L440.848 333.295Z" fill="white"/>
<path d="M443.232 341.934H412.889L410.894 332.809H441.237L443.232 341.934ZM413.668 340.96H442.032L440.458 333.783H412.094L413.668 340.96Z" fill="#FFCF2D"/>
<path d="M455.921 397.692H387.463C392.963 397.692 397.052 392.593 395.852 387.219L386.457 344.986C386.002 342.907 384.152 341.43 382.027 341.43H450.485C452.611 341.43 454.445 342.907 454.915 344.986L464.31 387.219C465.511 392.593 461.422 397.692 455.921 397.692Z" fill="white"/>
<path d="M455.921 398.18H387.463V397.206C389.945 397.206 392.249 396.102 393.791 394.169C395.332 392.237 395.916 389.753 395.381 387.333L385.986 345.1C385.58 343.265 383.925 341.918 382.027 341.918V340.943H450.485C452.854 340.943 454.867 342.567 455.386 344.873L464.781 387.106C465.381 389.818 464.732 392.594 463.012 394.77C461.276 396.946 458.696 398.18 455.921 398.18ZM391.568 397.206H455.921C458.404 397.206 460.708 396.102 462.249 394.169C463.791 392.237 464.375 389.753 463.84 387.333L454.445 345.1C454.023 343.233 452.4 341.918 450.485 341.918H384.996C385.954 342.616 386.668 343.671 386.943 344.889L396.338 387.122C396.939 389.834 396.29 392.611 394.57 394.786C393.726 395.809 392.704 396.621 391.568 397.206Z" fill="#FFCF2D"/>
<path d="M427.315 375.319H424.443C419.039 375.319 413.733 373.451 409.515 370.074C405.296 366.697 402.326 361.923 401.142 356.63L397.945 342.276L399.535 341.919L402.732 356.272C403.835 361.192 406.594 365.641 410.537 368.808C414.464 371.958 419.413 373.695 424.459 373.695H427.331C431.371 373.695 435.152 371.876 437.683 368.71C440.215 365.544 441.172 361.468 440.28 357.506L436.888 342.26L438.478 341.902L441.87 357.149C442.859 361.582 441.789 366.161 438.949 369.717C436.093 373.289 431.858 375.319 427.315 375.319Z" fill="#D0F0E4"/>
<path d="M430.722 375.157H427.85C422.447 375.157 417.141 373.289 412.922 369.912C408.704 366.535 405.734 361.761 404.55 356.467L401.353 342.114C401.256 341.675 401.532 341.237 401.97 341.139C402.408 341.042 402.846 341.318 402.943 341.756L406.14 356.11C407.243 361.03 410.002 365.479 413.945 368.645C417.871 371.795 422.82 373.533 427.867 373.533H430.739C434.779 373.533 438.56 371.714 441.091 368.548C443.622 365.382 444.58 361.306 443.687 357.344L440.296 342.097C440.199 341.659 440.474 341.22 440.913 341.123C441.351 341.026 441.789 341.302 441.886 341.74L445.277 356.987C446.267 361.42 445.196 365.999 442.357 369.555C439.501 373.127 435.266 375.157 430.722 375.157Z" fill="#FFCF2D"/>
<path d="M387.463 397.692H376.169C370.669 397.692 366.58 392.593 367.78 387.219L377.175 344.986C377.63 342.907 379.479 341.43 381.605 341.43H382.059C384.185 341.43 386.019 342.907 386.489 344.986L395.884 387.219C397.052 392.593 392.963 397.692 387.463 397.692Z" fill="#FFCF2D"/>
<path d="M387.463 398.18H376.17C373.395 398.18 370.815 396.946 369.079 394.77C367.342 392.611 366.693 389.818 367.31 387.106L376.705 344.873C377.208 342.6 379.269 340.943 381.605 340.943H382.06C384.429 340.943 386.441 342.567 386.96 344.873L396.355 387.106C396.939 389.818 396.29 392.611 394.538 394.77C392.818 396.946 390.221 398.18 387.463 398.18ZM381.605 341.918C379.723 341.918 378.052 343.249 377.646 345.084L368.251 387.317C367.716 389.737 368.284 392.221 369.841 394.153C371.383 396.085 373.703 397.189 376.17 397.189H387.463C389.929 397.189 392.233 396.085 393.791 394.153C395.349 392.221 395.933 389.72 395.414 387.301L386.019 345.068C385.597 343.2 383.974 341.885 382.06 341.885H381.605V341.918Z" fill="#FFCF2D"/>
<path d="M382.514 341.447H381.541V387.919H382.514V341.447Z" fill="white"/>
<path d="M392.688 396.72C392.574 396.72 392.477 396.688 392.38 396.623L381.995 388.423L371.561 396.574C371.351 396.737 371.042 396.704 370.88 396.493C370.718 396.282 370.75 395.973 370.961 395.811L382.011 387.205L392.98 395.892C393.191 396.055 393.223 396.363 393.061 396.574C392.98 396.655 392.834 396.72 392.688 396.72Z" fill="white"/>
<path d="M71.9609 326.396C71.9609 326.396 51.5971 300.222 54.8261 292.135C57.5845 285.235 63.8641 291.665 63.8641 291.665L71.9609 326.396Z" fill="#3FB1B5"/>
<path d="M86.9375 353.966C86.9375 353.966 108.145 330.584 107.658 322.173C107.172 313.762 99.4966 317.708 99.4966 317.708L86.9375 353.966Z" fill="#3FB1B5"/>
<path d="M109.07 374.54C109.07 381.587 106.085 388.017 101.184 392.921C97.2414 396.85 91.8868 399.026 86.3212 399.026H69.0402C63.4746 399.026 58.1199 396.85 54.177 392.921C49.2766 388.033 46.291 381.587 46.291 374.54C46.291 364.505 52.3272 355.721 61.3814 350.85H93.9962C103.034 355.705 109.07 364.505 109.07 374.54Z" fill="#FFCF2D"/>
<path d="M77.688 356.336C86.9094 356.336 94.3848 354.352 94.3848 351.904C94.3848 349.455 86.9094 347.471 77.688 347.471C68.4666 347.471 60.9912 349.455 60.9912 351.904C60.9912 354.352 68.4666 356.336 77.688 356.336Z" fill="#3FB1B5"/>
<path d="M86.9365 353.965C84.2916 354.436 81.1113 354.712 77.6875 354.712C74.4423 354.712 71.408 354.469 68.8605 354.047C62.8243 347.633 48.1234 330.616 53.5592 322.205C60.3417 311.7 71.9759 326.411 71.9759 326.411C71.9759 326.411 58.2485 284.226 65.5179 274.857C72.7872 265.488 78.4826 282.132 78.4826 282.132C78.4826 282.132 82.1497 261.932 91.9991 263.865C101.394 265.716 86.8391 312.56 85.4761 316.879C86.1738 314.801 90.3927 303.338 98.6194 304.393C106.408 305.383 91.2202 343.557 86.9365 353.965Z" fill="white"/>
<path d="M77.6881 355.201C74.5078 355.201 71.441 354.973 68.7799 354.535L68.6177 354.502L68.5041 354.389C62.0298 347.504 47.5723 330.568 53.1541 321.946C54.7929 319.413 56.8537 318.066 59.2714 317.952C63.8309 317.725 68.4879 321.914 70.8244 324.382C69.6886 320.68 67.3683 312.74 65.5347 304.264C62.1596 288.563 62.0136 278.577 65.129 274.566C66.9139 272.26 68.7962 271.254 70.7271 271.578C74.4429 272.195 77.1851 277.683 78.3372 280.444C79.1972 276.774 81.696 267.941 86.6126 264.58C88.3163 263.411 90.1499 263.021 92.097 263.395C93.0544 263.589 93.817 264.158 94.3849 265.132C96.5268 268.737 95.894 278.089 92.5189 292.898C91.0099 299.539 89.225 306.001 87.8782 310.613C90.1337 306.976 93.6872 303.29 98.6849 303.923C99.4962 304.02 100.129 304.459 100.583 305.222C102.238 308.064 100.989 315.955 96.8675 328.701C93.671 338.622 89.5495 348.917 87.3914 354.178L87.2941 354.421L87.0344 354.47C84.2435 354.941 81.0145 355.201 77.6881 355.201ZM69.1045 353.593C71.6682 353.999 74.6376 354.226 77.6881 354.226C80.8685 354.226 83.9352 353.983 86.5963 353.528C88.7869 348.218 92.7948 338.103 95.9426 328.376C100.957 312.854 100.778 307.479 99.7396 305.693C99.4637 305.206 99.0743 304.93 98.5713 304.865C90.7827 303.874 86.6937 314.818 85.9473 317.027L85.0224 316.718C85.6714 314.688 88.9978 303.939 91.5778 292.654C94.8555 278.284 95.537 268.932 93.5574 265.603C93.1355 264.888 92.6 264.466 91.9185 264.336C90.2472 264.012 88.6571 264.353 87.1805 265.359C81.3715 269.321 79.0025 282.084 78.9862 282.214L78.6455 284.049L78.0451 282.279C78.0127 282.181 74.8972 273.234 70.5973 272.52C69.0558 272.26 67.4818 273.153 65.9241 275.15C58.8982 284.211 72.3173 325.827 72.4633 326.249L73.3071 328.831L71.6195 326.704C71.5546 326.623 65.1615 318.618 59.3525 318.91C57.2593 319.008 55.4582 320.209 53.9979 322.466C51.7586 325.925 52.8945 331.348 57.3567 338.622C61.0563 344.695 66.2486 350.557 69.1045 353.593Z" fill="#3FB1B5"/>
<path d="M77.6889 355.201C77.4131 355.201 77.2021 354.974 77.2021 354.714C77.4131 327.647 81.2912 304.346 84.5202 289.57C88.0088 273.544 91.4975 263.785 91.53 263.688C91.6273 263.428 91.9031 263.298 92.1465 263.396C92.4062 263.493 92.536 263.769 92.4386 264.013C92.4062 264.11 88.9337 273.82 85.4613 289.781C82.2485 304.508 78.3867 327.744 78.1757 354.714C78.1757 354.99 77.9486 355.201 77.6889 355.201Z" fill="#3FB1B5"/>
<path d="M80.6103 314.98C80.5941 314.98 80.5616 314.98 80.5292 314.98C80.2695 314.947 80.0748 314.688 80.1235 314.428C81.7299 303.809 78.0141 282.424 77.9816 282.213C77.933 281.953 78.1115 281.693 78.3711 281.645C78.6307 281.596 78.8903 281.775 78.939 282.034C78.9714 282.246 82.7197 303.792 81.0809 314.574C81.0484 314.801 80.8537 314.98 80.6103 314.98Z" fill="#3FB1B5"/>
<path d="M80.999 355.102C80.9827 355.102 80.9827 355.102 80.9665 355.102C80.6907 355.086 80.4959 354.858 80.5122 354.582C81.4371 339.092 86.1914 326.183 90.0208 318.097C94.1747 309.329 98.1826 304.133 98.215 304.084C98.3773 303.873 98.6856 303.841 98.8965 304.003C99.1075 304.165 99.1399 304.474 98.9776 304.685C98.9452 304.734 94.986 309.865 90.8808 318.552C87.0838 326.557 82.3782 339.335 81.4695 354.663C81.4695 354.907 81.2586 355.102 80.999 355.102Z" fill="#3FB1B5"/>
<path d="M74.3456 355.12C74.086 355.12 73.8588 354.909 73.8588 354.633C73.6966 343.218 68.5366 334.596 64.2204 329.368C59.5473 323.701 54.8741 320.697 54.8417 320.681C54.6145 320.535 54.5496 320.243 54.6957 320.015C54.8417 319.788 55.1338 319.723 55.3609 319.869C55.5556 319.999 60.2126 322.97 64.9831 328.767C69.3804 334.109 74.6701 342.942 74.8324 354.633C74.8324 354.893 74.6214 355.12 74.3456 355.12Z" fill="#3FB1B5"/>
<path d="M61.7383 315.093C59.6452 315.093 57.9414 313.388 57.9414 311.294C57.9414 309.199 59.6452 307.494 61.7383 307.494C63.8315 307.494 65.5352 309.199 65.5352 311.294C65.5352 313.388 63.8315 315.093 61.7383 315.093ZM61.7383 308.468C60.1806 308.468 58.915 309.735 58.915 311.294C58.915 312.852 60.1806 314.119 61.7383 314.119C63.296 314.119 64.5617 312.852 64.5617 311.294C64.5617 309.735 63.296 308.468 61.7383 308.468Z" fill="#FFCF2D"/>
<path d="M54.0794 310.093C52.9761 310.093 52.0674 309.184 52.0674 308.08C52.0674 306.976 52.9761 306.066 54.0794 306.066C55.1828 306.066 56.0915 306.976 56.0915 308.08C56.0915 309.184 55.1828 310.093 54.0794 310.093ZM54.0794 307.041C53.5115 307.041 53.041 307.512 53.041 308.08C53.041 308.648 53.5115 309.119 54.0794 309.119C54.6474 309.119 55.1179 308.648 55.1179 308.08C55.1179 307.512 54.6474 307.041 54.0794 307.041Z" fill="#FFCF2D"/>
<path d="M56.2699 348.478C55.1665 348.478 54.2578 347.569 54.2578 346.465C54.2578 345.36 55.1665 344.451 56.2699 344.451C57.3733 344.451 58.2819 345.36 58.2819 346.465C58.2819 347.569 57.3733 348.478 56.2699 348.478ZM56.2699 345.425C55.702 345.425 55.2314 345.896 55.2314 346.465C55.2314 347.033 55.702 347.504 56.2699 347.504C56.8378 347.504 57.3084 347.033 57.3084 346.465C57.3084 345.896 56.8378 345.425 56.2699 345.425Z" fill="#FFCF2D"/>
<path d="M96.8678 301.326C94.7746 301.326 93.0708 299.621 93.0708 297.526C93.0708 295.432 94.7746 293.727 96.8678 293.727C98.961 293.727 100.665 295.432 100.665 297.526C100.665 299.621 98.961 301.326 96.8678 301.326ZM96.8678 294.701C95.31 294.701 94.0444 295.967 94.0444 297.526C94.0444 299.085 95.31 300.351 96.8678 300.351C98.4255 300.351 99.6912 299.085 99.6912 297.526C99.6912 295.967 98.4255 294.701 96.8678 294.701Z" fill="#FFCF2D"/>
<path d="M97.8421 289.082C96.7387 289.082 95.8301 288.172 95.8301 287.068C95.8301 285.964 96.7387 285.055 97.8421 285.055C98.9455 285.055 99.8542 285.964 99.8542 287.068C99.8542 288.172 98.9455 289.082 97.8421 289.082ZM97.8421 286.029C97.2742 286.029 96.8037 286.5 96.8037 287.068C96.8037 287.636 97.2742 288.107 97.8421 288.107C98.41 288.107 98.8806 287.636 98.8806 287.068C98.8806 286.5 98.41 286.029 97.8421 286.029Z" fill="#FFCF2D"/>
<path d="M103.375 301.326C102.272 301.326 101.363 300.417 101.363 299.312C101.363 298.208 102.272 297.299 103.375 297.299C104.479 297.299 105.387 298.208 105.387 299.312C105.387 300.417 104.479 301.326 103.375 301.326ZM103.375 298.273C102.807 298.273 102.337 298.744 102.337 299.312C102.337 299.881 102.807 300.352 103.375 300.352C103.943 300.352 104.414 299.881 104.414 299.312C104.414 298.744 103.943 298.273 103.375 298.273Z" fill="#FFCF2D"/>
<path d="M299.926 64.6191L332.589 73.8419C346.884 77.7551 357.253 90.1605 358.551 104.936L363.532 160.062H190.674L206.641 98.1168C209.253 87.7898 217.074 79.6062 227.264 76.5373L265.412 64.6191H299.926Z" fill="#FE5244"/>
<path d="M200.394 155.304C201.264 155.304 201.968 154.599 201.968 153.729C201.968 152.859 201.264 152.154 200.394 152.154C199.525 152.154 198.82 152.859 198.82 153.729C198.82 154.599 199.525 155.304 200.394 155.304Z" fill="white"/>
<path d="M216.783 155.304C217.652 155.304 218.357 154.599 218.357 153.729C218.357 152.859 217.652 152.154 216.783 152.154C215.914 152.154 215.209 152.859 215.209 153.729C215.209 154.599 215.914 155.304 216.783 155.304Z" fill="white"/>
<path d="M233.172 155.304C234.041 155.304 234.745 154.599 234.745 153.729C234.745 152.859 234.041 152.154 233.172 152.154C232.302 152.154 231.598 152.859 231.598 153.729C231.598 154.599 232.302 155.304 233.172 155.304Z" fill="white"/>
<path d="M249.56 155.304C250.429 155.304 251.134 154.599 251.134 153.729C251.134 152.859 250.429 152.154 249.56 152.154C248.691 152.154 247.986 152.859 247.986 153.729C247.986 154.599 248.691 155.304 249.56 155.304Z" fill="white"/>
<path d="M265.948 155.304C266.818 155.304 267.522 154.599 267.522 153.729C267.522 152.859 266.818 152.154 265.948 152.154C265.079 152.154 264.375 152.859 264.375 153.729C264.375 154.599 265.079 155.304 265.948 155.304Z" fill="white"/>
<path d="M282.337 155.304C283.206 155.304 283.911 154.599 283.911 153.729C283.911 152.859 283.206 152.154 282.337 152.154C281.467 152.154 280.763 152.859 280.763 153.729C280.763 154.599 281.467 155.304 282.337 155.304Z" fill="white"/>
<path d="M298.725 155.304C299.594 155.304 300.299 154.599 300.299 153.729C300.299 152.859 299.594 152.154 298.725 152.154C297.856 152.154 297.151 152.859 297.151 153.729C297.151 154.599 297.856 155.304 298.725 155.304Z" fill="white"/>
<path d="M315.114 155.304C315.983 155.304 316.688 154.599 316.688 153.729C316.688 152.859 315.983 152.154 315.114 152.154C314.245 152.154 313.54 152.859 313.54 153.729C313.54 154.599 314.245 155.304 315.114 155.304Z" fill="white"/>
<path d="M331.503 155.304C332.372 155.304 333.077 154.599 333.077 153.729C333.077 152.859 332.372 152.154 331.503 152.154C330.633 152.154 329.929 152.859 329.929 153.729C329.929 154.599 330.633 155.304 331.503 155.304Z" fill="white"/>
<path d="M347.891 155.304C348.76 155.304 349.465 154.599 349.465 153.729C349.465 152.859 348.76 152.154 347.891 152.154C347.022 152.154 346.317 152.859 346.317 153.729C346.317 154.599 347.022 155.304 347.891 155.304Z" fill="white"/>
<path d="M208.832 144.263C209.701 144.263 210.406 143.558 210.406 142.688C210.406 141.818 209.701 141.113 208.832 141.113C207.962 141.113 207.258 141.818 207.258 142.688C207.258 143.558 207.962 144.263 208.832 144.263Z" fill="white"/>
<path d="M225.22 144.263C226.09 144.263 226.794 143.558 226.794 142.688C226.794 141.818 226.09 141.113 225.22 141.113C224.351 141.113 223.646 141.818 223.646 142.688C223.646 143.558 224.351 144.263 225.22 144.263Z" fill="white"/>
<path d="M241.609 144.263C242.478 144.263 243.183 143.558 243.183 142.688C243.183 141.818 242.478 141.113 241.609 141.113C240.74 141.113 240.035 141.818 240.035 142.688C240.035 143.558 240.74 144.263 241.609 144.263Z" fill="white"/>
<path d="M257.997 144.263C258.867 144.263 259.571 143.558 259.571 142.688C259.571 141.818 258.867 141.113 257.997 141.113C257.128 141.113 256.423 141.818 256.423 142.688C256.423 143.558 257.128 144.263 257.997 144.263Z" fill="white"/>
<path d="M274.386 144.263C275.255 144.263 275.96 143.558 275.96 142.688C275.96 141.818 275.255 141.113 274.386 141.113C273.516 141.113 272.812 141.818 272.812 142.688C272.812 143.558 273.516 144.263 274.386 144.263Z" fill="white"/>
<path d="M290.774 144.263C291.643 144.263 292.348 143.558 292.348 142.688C292.348 141.818 291.643 141.113 290.774 141.113C289.905 141.113 289.2 141.818 289.2 142.688C289.2 143.558 289.905 144.263 290.774 144.263Z" fill="white"/>
<path d="M307.163 144.263C308.032 144.263 308.737 143.558 308.737 142.688C308.737 141.818 308.032 141.113 307.163 141.113C306.294 141.113 305.589 141.818 305.589 142.688C305.589 143.558 306.294 144.263 307.163 144.263Z" fill="white"/>
<path d="M323.551 144.263C324.421 144.263 325.125 143.558 325.125 142.688C325.125 141.818 324.421 141.113 323.551 141.113C322.682 141.113 321.978 141.818 321.978 142.688C321.978 143.558 322.682 144.263 323.551 144.263Z" fill="white"/>
<path d="M339.94 144.263C340.809 144.263 341.514 143.558 341.514 142.688C341.514 141.818 340.809 141.113 339.94 141.113C339.071 141.113 338.366 141.818 338.366 142.688C338.366 143.558 339.071 144.263 339.94 144.263Z" fill="white"/>
<path d="M356.328 144.263C357.198 144.263 357.902 143.558 357.902 142.688C357.902 141.818 357.198 141.113 356.328 141.113C355.459 141.113 354.754 141.818 354.754 142.688C354.754 143.558 355.459 144.263 356.328 144.263Z" fill="white"/>
<path d="M200.394 132.896C201.264 132.896 201.968 132.191 201.968 131.321C201.968 130.451 201.264 129.746 200.394 129.746C199.525 129.746 198.82 130.451 198.82 131.321C198.82 132.191 199.525 132.896 200.394 132.896Z" fill="white"/>
<path d="M216.783 132.896C217.652 132.896 218.357 132.191 218.357 131.321C218.357 130.451 217.652 129.746 216.783 129.746C215.914 129.746 215.209 130.451 215.209 131.321C215.209 132.191 215.914 132.896 216.783 132.896Z" fill="white"/>
<path d="M233.172 132.896C234.041 132.896 234.745 132.191 234.745 131.321C234.745 130.451 234.041 129.746 233.172 129.746C232.302 129.746 231.598 130.451 231.598 131.321C231.598 132.191 232.302 132.896 233.172 132.896Z" fill="white"/>
<path d="M249.56 132.896C250.429 132.896 251.134 132.191 251.134 131.321C251.134 130.451 250.429 129.746 249.56 129.746C248.691 129.746 247.986 130.451 247.986 131.321C247.986 132.191 248.691 132.896 249.56 132.896Z" fill="white"/>
<path d="M265.948 132.896C266.818 132.896 267.522 132.191 267.522 131.321C267.522 130.451 266.818 129.746 265.948 129.746C265.079 129.746 264.375 130.451 264.375 131.321C264.375 132.191 265.079 132.896 265.948 132.896Z" fill="white"/>
<path d="M282.337 132.896C283.206 132.896 283.911 132.191 283.911 131.321C283.911 130.451 283.206 129.746 282.337 129.746C281.467 129.746 280.763 130.451 280.763 131.321C280.763 132.191 281.467 132.896 282.337 132.896Z" fill="white"/>
<path d="M298.725 132.896C299.594 132.896 300.299 132.191 300.299 131.321C300.299 130.451 299.594 129.746 298.725 129.746C297.856 129.746 297.151 130.451 297.151 131.321C297.151 132.191 297.856 132.896 298.725 132.896Z" fill="white"/>
<path d="M315.114 132.896C315.983 132.896 316.688 132.191 316.688 131.321C316.688 130.451 315.983 129.746 315.114 129.746C314.245 129.746 313.54 130.451 313.54 131.321C313.54 132.191 314.245 132.896 315.114 132.896Z" fill="white"/>
<path d="M331.503 132.896C332.372 132.896 333.077 132.191 333.077 131.321C333.077 130.451 332.372 129.746 331.503 129.746C330.633 129.746 329.929 130.451 329.929 131.321C329.929 132.191 330.633 132.896 331.503 132.896Z" fill="white"/>
<path d="M347.891 132.896C348.76 132.896 349.465 132.191 349.465 131.321C349.465 130.451 348.76 129.746 347.891 129.746C347.022 129.746 346.317 130.451 346.317 131.321C346.317 132.191 347.022 132.896 347.891 132.896Z" fill="white"/>
<path d="M208.832 122.341C209.701 122.341 210.406 121.636 210.406 120.766C210.406 119.897 209.701 119.191 208.832 119.191C207.962 119.191 207.258 119.897 207.258 120.766C207.258 121.636 207.962 122.341 208.832 122.341Z" fill="white"/>
<path d="M225.22 122.341C226.09 122.341 226.794 121.636 226.794 120.766C226.794 119.897 226.09 119.191 225.22 119.191C224.351 119.191 223.646 119.897 223.646 120.766C223.646 121.636 224.351 122.341 225.22 122.341Z" fill="white"/>
<path d="M241.609 122.341C242.478 122.341 243.183 121.636 243.183 120.766C243.183 119.897 242.478 119.191 241.609 119.191C240.74 119.191 240.035 119.897 240.035 120.766C240.035 121.636 240.74 122.341 241.609 122.341Z" fill="white"/>
<path d="M257.997 122.341C258.867 122.341 259.571 121.636 259.571 120.766C259.571 119.897 258.867 119.191 257.997 119.191C257.128 119.191 256.423 119.897 256.423 120.766C256.423 121.636 257.128 122.341 257.997 122.341Z" fill="white"/>
<path d="M274.386 122.341C275.255 122.341 275.96 121.636 275.96 120.766C275.96 119.897 275.255 119.191 274.386 119.191C273.516 119.191 272.812 119.897 272.812 120.766C272.812 121.636 273.516 122.341 274.386 122.341Z" fill="white"/>
<path d="M290.774 122.341C291.643 122.341 292.348 121.636 292.348 120.766C292.348 119.897 291.643 119.191 290.774 119.191C289.905 119.191 289.2 119.897 289.2 120.766C289.2 121.636 289.905 122.341 290.774 122.341Z" fill="white"/>
<path d="M307.163 122.341C308.032 122.341 308.737 121.636 308.737 120.766C308.737 119.897 308.032 119.191 307.163 119.191C306.294 119.191 305.589 119.897 305.589 120.766C305.589 121.636 306.294 122.341 307.163 122.341Z" fill="white"/>
<path d="M324.038 122.341C324.907 122.341 325.612 121.636 325.612 120.766C325.612 119.897 324.907 119.191 324.038 119.191C323.169 119.191 322.464 119.897 322.464 120.766C322.464 121.636 323.169 122.341 324.038 122.341Z" fill="white"/>
<path d="M339.94 122.341C340.809 122.341 341.514 121.636 341.514 120.766C341.514 119.897 340.809 119.191 339.94 119.191C339.071 119.191 338.366 119.897 338.366 120.766C338.366 121.636 339.071 122.341 339.94 122.341Z" fill="white"/>
<path d="M356.328 122.341C357.198 122.341 357.902 121.636 357.902 120.766C357.902 119.897 357.198 119.191 356.328 119.191C355.459 119.191 354.754 119.897 354.754 120.766C354.754 121.636 355.459 122.341 356.328 122.341Z" fill="white"/>
<path d="M216.783 111.463C217.652 111.463 218.357 110.757 218.357 109.888C218.357 109.018 217.652 108.312 216.783 108.312C215.914 108.312 215.209 109.018 215.209 109.888C215.209 110.757 215.914 111.463 216.783 111.463Z" fill="white"/>
<path d="M249.56 111.463C250.43 111.463 251.134 110.757 251.134 109.888C251.134 109.018 250.43 108.312 249.56 108.312C248.691 108.312 247.986 109.018 247.986 109.888C247.986 110.757 248.691 111.463 249.56 111.463Z" fill="white"/>
<path d="M265.948 111.463C266.818 111.463 267.522 110.757 267.522 109.888C267.522 109.018 266.818 108.312 265.948 108.312C265.079 108.312 264.375 109.018 264.375 109.888C264.375 110.757 265.079 111.463 265.948 111.463Z" fill="white"/>
<path d="M282.337 111.463C283.206 111.463 283.911 110.757 283.911 109.888C283.911 109.018 283.206 108.312 282.337 108.312C281.468 108.312 280.763 109.018 280.763 109.888C280.763 110.757 281.468 111.463 282.337 111.463Z" fill="white"/>
<path d="M298.725 111.463C299.595 111.463 300.299 110.757 300.299 109.888C300.299 109.018 299.595 108.312 298.725 108.312C297.856 108.312 297.151 109.018 297.151 109.888C297.151 110.757 297.856 111.463 298.725 111.463Z" fill="white"/>
<path d="M315.114 111.463C315.983 111.463 316.688 110.757 316.688 109.888C316.688 109.018 315.983 108.312 315.114 108.312C314.245 108.312 313.54 109.018 313.54 109.888C313.54 110.757 314.245 111.463 315.114 111.463Z" fill="white"/>
<path d="M331.503 111.463C332.372 111.463 333.077 110.757 333.077 109.888C333.077 109.018 332.372 108.312 331.503 108.312C330.633 108.312 329.929 109.018 329.929 109.888C329.929 110.757 330.633 111.463 331.503 111.463Z" fill="white"/>
<path d="M347.891 111.463C348.761 111.463 349.465 110.757 349.465 109.888C349.465 109.018 348.761 108.312 347.891 108.312C347.022 108.312 346.317 109.018 346.317 109.888C346.317 110.757 347.022 111.463 347.891 111.463Z" fill="white"/>
<path d="M208.832 100.746C209.701 100.746 210.406 100.041 210.406 99.1707C210.406 98.3009 209.701 97.5957 208.832 97.5957C207.962 97.5957 207.258 98.3009 207.258 99.1707C207.258 100.041 207.962 100.746 208.832 100.746Z" fill="white"/>
<path d="M225.22 100.746C226.09 100.746 226.794 100.041 226.794 99.1707C226.794 98.3009 226.09 97.5957 225.22 97.5957C224.351 97.5957 223.646 98.3009 223.646 99.1707C223.646 100.041 224.351 100.746 225.22 100.746Z" fill="white"/>
<path d="M241.609 100.746C242.478 100.746 243.183 100.041 243.183 99.1707C243.183 98.3009 242.478 97.5957 241.609 97.5957C240.74 97.5957 240.035 98.3009 240.035 99.1707C240.035 100.041 240.74 100.746 241.609 100.746Z" fill="white"/>
<path d="M257.997 100.746C258.867 100.746 259.571 100.041 259.571 99.1707C259.571 98.3009 258.867 97.5957 257.997 97.5957C257.128 97.5957 256.423 98.3009 256.423 99.1707C256.423 100.041 257.128 100.746 257.997 100.746Z" fill="white"/>
<path d="M274.386 100.746C275.255 100.746 275.96 100.041 275.96 99.1707C275.96 98.3009 275.255 97.5957 274.386 97.5957C273.517 97.5957 272.812 98.3009 272.812 99.1707C272.812 100.041 273.517 100.746 274.386 100.746Z" fill="white"/>
<path d="M290.774 100.746C291.643 100.746 292.348 100.041 292.348 99.1707C292.348 98.3009 291.643 97.5957 290.774 97.5957C289.905 97.5957 289.2 98.3009 289.2 99.1707C289.2 100.041 289.905 100.746 290.774 100.746Z" fill="white"/>
<path d="M307.163 100.746C308.032 100.746 308.737 100.041 308.737 99.1707C308.737 98.3009 308.032 97.5957 307.163 97.5957C306.294 97.5957 305.589 98.3009 305.589 99.1707C305.589 100.041 306.294 100.746 307.163 100.746Z" fill="white"/>
<path d="M323.551 100.746C324.421 100.746 325.125 100.041 325.125 99.1707C325.125 98.3009 324.421 97.5957 323.551 97.5957C322.682 97.5957 321.978 98.3009 321.978 99.1707C321.978 100.041 322.682 100.746 323.551 100.746Z" fill="white"/>
<path d="M339.94 100.746C340.809 100.746 341.514 100.041 341.514 99.1707C341.514 98.3009 340.809 97.5957 339.94 97.5957C339.071 97.5957 338.366 98.3009 338.366 99.1707C338.366 100.041 339.071 100.746 339.94 100.746Z" fill="white"/>
<path d="M355.517 100.746C356.386 100.746 357.091 100.041 357.091 99.1707C357.091 98.3009 356.386 97.5957 355.517 97.5957C354.648 97.5957 353.943 98.3009 353.943 99.1707C353.943 100.041 354.648 100.746 355.517 100.746Z" fill="white"/>
<path d="M216.783 90.191C217.652 90.191 218.357 89.4859 218.357 88.616C218.357 87.7462 217.652 87.041 216.783 87.041C215.914 87.041 215.209 87.7462 215.209 88.616C215.209 89.4859 215.914 90.191 216.783 90.191Z" fill="white"/>
<path d="M233.172 90.191C234.041 90.191 234.745 89.4859 234.745 88.616C234.745 87.7462 234.041 87.041 233.172 87.041C232.302 87.041 231.598 87.7462 231.598 88.616C231.598 89.4859 232.302 90.191 233.172 90.191Z" fill="white"/>
<path d="M249.56 90.191C250.43 90.191 251.134 89.4859 251.134 88.616C251.134 87.7462 250.43 87.041 249.56 87.041C248.691 87.041 247.986 87.7462 247.986 88.616C247.986 89.4859 248.691 90.191 249.56 90.191Z" fill="white"/>
<path d="M265.948 90.191C266.818 90.191 267.522 89.4859 267.522 88.616C267.522 87.7462 266.818 87.041 265.948 87.041C265.079 87.041 264.375 87.7462 264.375 88.616C264.375 89.4859 265.079 90.191 265.948 90.191Z" fill="white"/>
<path d="M282.337 90.191C283.206 90.191 283.911 89.4859 283.911 88.616C283.911 87.7462 283.206 87.041 282.337 87.041C281.468 87.041 280.763 87.7462 280.763 88.616C280.763 89.4859 281.468 90.191 282.337 90.191Z" fill="white"/>
<path d="M298.725 90.191C299.595 90.191 300.299 89.4859 300.299 88.616C300.299 87.7462 299.595 87.041 298.725 87.041C297.856 87.041 297.151 87.7462 297.151 88.616C297.151 89.4859 297.856 90.191 298.725 90.191Z" fill="white"/>
<path d="M315.114 90.191C315.983 90.191 316.688 89.4859 316.688 88.616C316.688 87.7462 315.983 87.041 315.114 87.041C314.245 87.041 313.54 87.7462 313.54 88.616C313.54 89.4859 314.245 90.191 315.114 90.191Z" fill="white"/>
<path d="M331.503 90.191C332.372 90.191 333.077 89.4859 333.077 88.616C333.077 87.7462 332.372 87.041 331.503 87.041C330.633 87.041 329.929 87.7462 329.929 88.616C329.929 89.4859 330.633 90.191 331.503 90.191Z" fill="white"/>
<path d="M347.891 90.191C348.761 90.191 349.465 89.4859 349.465 88.616C349.465 87.7462 348.761 87.041 347.891 87.041C347.022 87.041 346.317 87.7462 346.317 88.616C346.317 89.4859 347.022 90.191 347.891 90.191Z" fill="white"/>
<path d="M265.948 70.3825C266.818 70.3825 267.522 69.6773 267.522 68.8074C267.522 67.9376 266.818 67.2324 265.948 67.2324C265.079 67.2324 264.375 67.9376 264.375 68.8074C264.375 69.6773 265.079 70.3825 265.948 70.3825Z" fill="white"/>
<path d="M282.337 70.3825C283.206 70.3825 283.911 69.6773 283.911 68.8074C283.911 67.9376 283.206 67.2324 282.337 67.2324C281.468 67.2324 280.763 67.9376 280.763 68.8074C280.763 69.6773 281.468 70.3825 282.337 70.3825Z" fill="white"/>
<path d="M298.726 70.3825C299.595 70.3825 300.3 69.6773 300.3 68.8074C300.3 67.9376 299.595 67.2324 298.726 67.2324C297.857 67.2324 297.152 67.9376 297.152 68.8074C297.152 69.6773 297.857 70.3825 298.726 70.3825Z" fill="white"/>
<path d="M316.607 69.3274C316.396 69.9444 315.812 70.3828 315.114 70.3828C314.254 70.3828 313.54 69.6846 313.54 68.8078C313.54 68.6941 313.556 68.5805 313.572 68.4668L316.607 69.3274Z" fill="white"/>
<path d="M225.221 80.2868C226.09 80.2868 226.795 79.5816 226.795 78.7117C226.795 77.8419 226.09 77.1367 225.221 77.1367C224.352 77.1367 223.647 77.8419 223.647 78.7117C223.647 79.5816 224.352 80.2868 225.221 80.2868Z" fill="white"/>
<path d="M241.609 80.2868C242.478 80.2868 243.183 79.5816 243.183 78.7117C243.183 77.8419 242.478 77.1367 241.609 77.1367C240.74 77.1367 240.035 77.8419 240.035 78.7117C240.035 79.5816 240.74 80.2868 241.609 80.2868Z" fill="white"/>
<path d="M256.44 78.193C257.309 78.193 258.014 77.4878 258.014 76.618C258.014 75.7481 257.309 75.043 256.44 75.043C255.571 75.043 254.866 75.7481 254.866 76.618C254.866 77.4878 255.571 78.193 256.44 78.193Z" fill="white"/>
<path d="M274.386 80.2868C275.256 80.2868 275.96 79.5816 275.96 78.7117C275.96 77.8419 275.256 77.1367 274.386 77.1367C273.517 77.1367 272.812 77.8419 272.812 78.7117C272.812 79.5816 273.517 80.2868 274.386 80.2868Z" fill="white"/>
<path d="M290.775 80.2868C291.644 80.2868 292.349 79.5816 292.349 78.7117C292.349 77.8419 291.644 77.1367 290.775 77.1367C289.906 77.1367 289.201 77.8419 289.201 78.7117C289.201 79.5816 289.906 80.2868 290.775 80.2868Z" fill="white"/>
<path d="M307.163 80.2868C308.033 80.2868 308.737 79.5816 308.737 78.7117C308.737 77.8419 308.033 77.1367 307.163 77.1367C306.294 77.1367 305.589 77.8419 305.589 78.7117C305.589 79.5816 306.294 80.2868 307.163 80.2868Z" fill="white"/>
<path d="M323.552 80.2868C324.421 80.2868 325.126 79.5816 325.126 78.7117C325.126 77.8419 324.421 77.1367 323.552 77.1367C322.683 77.1367 321.978 77.8419 321.978 78.7117C321.978 79.5816 322.683 80.2868 323.552 80.2868Z" fill="white"/>
<path d="M339.941 80.2868C340.81 80.2868 341.515 79.5816 341.515 78.7117C341.515 77.8419 340.81 77.1367 339.941 77.1367C339.071 77.1367 338.367 77.8419 338.367 78.7117C338.367 79.5816 339.071 80.2868 339.941 80.2868Z" fill="white"/>
<path d="M325.904 161.019C325.645 161.019 325.434 160.824 325.417 160.564L321.848 111.966C321.831 111.69 322.026 111.462 322.302 111.446C322.578 111.43 322.805 111.625 322.821 111.901L326.391 160.499C326.407 160.775 326.212 161.003 325.937 161.019C325.92 161.019 325.92 161.019 325.904 161.019Z" fill="white"/>
<path d="M241.446 161.02C241.171 161.02 240.96 160.809 240.96 160.533V146.082L237.828 144.247C231.922 140.788 229.001 133.969 230.526 127.295L235.702 104.693C235.767 104.433 236.027 104.27 236.286 104.319C236.546 104.384 236.708 104.644 236.66 104.904L231.484 127.506C230.039 133.757 232.798 140.139 238.331 143.386L241.949 145.513V160.517C241.933 160.809 241.722 161.02 241.446 161.02Z" fill="white"/>
<path d="M275.213 96.7031L264.114 64.5532C264.033 64.2934 264.163 64.0173 264.423 63.9361C264.682 63.855 264.958 63.9849 265.039 64.2447L275.554 94.7383L300.072 64.0985C300.234 63.8874 300.542 63.855 300.753 64.0173C300.964 64.1797 300.997 64.4882 300.834 64.6993L275.213 96.7031Z" fill="white"/>
<path d="M304.08 86.0197L293.062 73.2409C292.884 73.0298 292.916 72.7375 293.111 72.5589C293.322 72.3803 293.614 72.4128 293.792 72.6076L303.999 84.4446L314.627 69.2952C314.789 69.0679 315.081 69.0192 315.308 69.1815C315.535 69.3439 315.584 69.6362 315.422 69.8635L304.08 86.0197Z" fill="white"/>
<path d="M255.077 84.2005L247.58 70.0091C247.45 69.7655 247.548 69.4732 247.775 69.3433C248.018 69.2134 248.31 69.3109 248.44 69.5382L255.385 82.658L267.295 72.5421C267.506 72.3635 267.814 72.396 267.976 72.5908C268.155 72.8019 268.123 73.1104 267.928 73.2728L255.077 84.2005Z" fill="white"/>
<path d="M233.787 115.668C233.56 115.668 233.365 115.506 233.317 115.278L231.094 104.903C231.045 104.643 231.207 104.383 231.467 104.318C231.726 104.253 231.986 104.432 232.051 104.692L234.274 115.067C234.323 115.327 234.16 115.587 233.901 115.652C233.852 115.668 233.82 115.668 233.787 115.668Z" fill="white"/>
<path d="M277.112 202.651H232.635L212.969 171.914H257.445L277.112 202.651Z" fill="#FFCF2D"/>
<path d="M250.289 195.979H205.796L186.146 165.258H230.623L250.289 195.979Z" fill="white"/>
<path d="M250.289 196.465H205.797C205.635 196.465 205.472 196.384 205.391 196.238L185.741 165.517C185.644 165.371 185.644 165.176 185.725 165.014C185.806 164.851 185.968 164.754 186.147 164.754H230.623C230.785 164.754 230.947 164.835 231.029 164.981L250.695 195.702C250.792 195.848 250.792 196.043 250.711 196.206C250.63 196.368 250.468 196.465 250.289 196.465ZM206.056 195.491H249.397L230.363 165.744H187.039L206.056 195.491Z" fill="#3FB1B5"/>
<path d="M222.088 171.558C221.602 171.558 221.017 171.428 220.401 171.168L217.886 170.064C216.815 169.593 216.068 169.691 215.906 169.918L215.111 170.925C214.608 171.542 213.472 171.574 212.174 171.006L209.984 170.048C208.913 169.577 208.166 169.674 208.004 169.902L207.339 170.762C206.836 171.379 205.7 171.412 204.385 170.86L202.73 170.145C201.659 169.674 200.913 169.772 200.751 169.983L200.15 170.746C199.647 171.363 198.512 171.396 197.213 170.844L195.558 170.129C195.347 170.048 195.25 169.804 195.347 169.593C195.429 169.382 195.672 169.285 195.883 169.382L197.538 170.097C198.512 170.519 199.323 170.503 199.534 170.243L200.134 169.48C200.621 168.846 201.789 168.814 203.087 169.398L204.742 170.113C205.716 170.535 206.527 170.519 206.738 170.259L207.404 169.415C207.89 168.781 209.059 168.749 210.357 169.317L212.547 170.275C213.521 170.697 214.332 170.681 214.543 170.421L215.338 169.415C215.825 168.781 216.993 168.749 218.291 169.333L220.806 170.438C221.78 170.86 222.591 170.844 222.802 170.584L223.662 169.496C223.792 169.317 224.052 169.285 224.23 169.431C224.409 169.561 224.441 169.821 224.295 169.999L223.435 171.103C223.062 171.396 222.624 171.558 222.088 171.558Z" fill="#3FB1B5"/>
<path d="M227.167 178.054C226.68 178.054 226.096 177.924 225.479 177.664L222.964 176.56C221.893 176.089 221.147 176.187 220.984 176.414L220.189 177.421C219.686 178.038 218.55 178.07 217.252 177.502L215.062 176.544C213.991 176.073 213.244 176.171 213.082 176.398L212.417 177.258C211.914 177.875 210.778 177.908 209.464 177.356L207.809 176.641C206.738 176.171 205.991 176.268 205.829 176.479L205.229 177.242C204.726 177.859 203.59 177.892 202.292 177.34C202.081 177.258 201.984 177.015 202.081 176.804C202.162 176.593 202.405 176.495 202.616 176.593C203.59 177.015 204.401 176.999 204.612 176.739L205.212 175.976C205.699 175.342 206.868 175.31 208.166 175.895L209.821 176.609C210.794 177.031 211.606 177.015 211.817 176.755L212.482 175.911C212.969 175.278 214.137 175.245 215.435 175.813L217.626 176.771C218.599 177.193 219.41 177.177 219.621 176.917L220.416 175.911C220.903 175.278 222.072 175.245 223.37 175.83L225.885 176.934C226.858 177.356 227.67 177.34 227.881 177.08L228.741 175.992C228.87 175.813 229.13 175.781 229.308 175.927C229.487 176.057 229.519 176.317 229.373 176.495L228.513 177.599C228.14 177.892 227.702 178.054 227.167 178.054Z" fill="#3FB1B5"/>
<path d="M232.246 184.531C231.759 184.531 231.175 184.401 230.558 184.141L228.043 183.037C226.972 182.566 226.226 182.663 226.064 182.891L225.269 183.897C224.766 184.514 223.63 184.547 222.332 183.979L220.141 183.021C219.07 182.55 218.324 182.647 218.162 182.874L217.496 183.735C216.993 184.352 215.857 184.385 214.543 183.832L212.888 183.118C211.817 182.647 211.071 182.745 210.909 182.956L210.308 183.719C209.805 184.336 208.669 184.368 207.371 183.816L205.716 183.102C205.505 183.021 205.408 182.777 205.505 182.566C205.586 182.355 205.83 182.257 206.041 182.355L207.696 183.069C208.669 183.491 209.481 183.475 209.692 183.215L210.292 182.452C210.779 181.819 211.947 181.787 213.245 182.371L214.9 183.086C215.874 183.508 216.685 183.491 216.896 183.232L217.561 182.387C218.048 181.754 219.216 181.722 220.514 182.29L222.705 183.248C223.679 183.67 224.49 183.654 224.701 183.394L225.496 182.387C225.983 181.754 227.151 181.722 228.449 182.306L230.964 183.41C231.938 183.832 232.749 183.816 232.96 183.556L233.82 182.452C233.95 182.274 234.209 182.241 234.388 182.387C234.566 182.517 234.599 182.777 234.453 182.956L233.593 184.06C233.22 184.368 232.781 184.531 232.246 184.531Z" fill="#3FB1B5"/>
<path d="M237.325 191.027C236.838 191.027 236.254 190.897 235.637 190.637L233.122 189.533C232.051 189.062 231.305 189.159 231.142 189.387L230.347 190.393C229.844 191.01 228.709 191.043 227.41 190.475L225.22 189.517C224.149 189.046 223.403 189.143 223.24 189.371L222.575 190.231C222.072 190.848 220.936 190.881 219.622 190.329L217.967 189.614C216.896 189.143 216.149 189.241 215.987 189.452L215.387 190.215C214.884 190.832 213.748 190.864 212.45 190.312L210.795 189.598C210.584 189.517 210.486 189.273 210.584 189.062C210.665 188.851 210.908 188.754 211.119 188.851L212.774 189.565C213.797 190.004 214.559 189.971 214.77 189.712L215.371 188.948C215.857 188.315 217.026 188.283 218.324 188.867L219.979 189.582C220.952 190.004 221.764 189.988 221.975 189.728L222.64 188.883C223.127 188.25 224.295 188.218 225.593 188.786L227.784 189.744C228.757 190.166 229.569 190.15 229.779 189.89L230.575 188.883C231.061 188.25 232.23 188.218 233.528 188.802L236.043 189.906C237.049 190.345 237.828 190.312 238.039 190.052L238.899 188.965C239.028 188.786 239.288 188.754 239.467 188.9C239.645 189.03 239.678 189.289 239.531 189.468L238.672 190.572C238.298 190.864 237.86 191.027 237.325 191.027Z" fill="#3FB1B5"/>
<path d="M259.019 178.313H344.336C355.63 178.313 364.473 168.587 363.402 157.35C362.331 146.065 351.768 138.158 340.653 140.334L242.468 154.022C238.752 154.541 235.491 156.798 233.722 160.111L225.025 176.283C224.716 176.689 224.506 177.16 224.376 177.647L221.114 190.263H222.948C225.787 190.263 228.416 188.688 229.747 186.172L231.385 183.103L250.257 185.149C253.794 185.587 257.153 183.168 258.418 179.855L259.019 178.313Z" fill="#A0505A"/>
<path d="M231.564 183.037C231.499 183.037 231.418 183.021 231.353 182.988C231.11 182.875 231.012 182.582 231.126 182.339L236.821 170.534C236.935 170.291 237.227 170.193 237.47 170.307C237.714 170.421 237.811 170.713 237.697 170.957L232.002 182.761C231.921 182.94 231.742 183.037 231.564 183.037Z" fill="#73325A"/>
<path d="M239.157 183.785C239.092 183.785 239.011 183.769 238.946 183.736C238.703 183.623 238.606 183.33 238.719 183.087L244.415 171.282C244.528 171.039 244.82 170.941 245.064 171.055C245.307 171.169 245.404 171.461 245.291 171.705L239.595 183.509C239.514 183.688 239.336 183.785 239.157 183.785Z" fill="#73325A"/>
<path d="M246.589 184.711C246.524 184.711 246.443 184.695 246.378 184.662C246.135 184.549 246.038 184.256 246.151 184.013L251.83 172.208C251.944 171.965 252.236 171.867 252.479 171.981C252.723 172.095 252.82 172.387 252.707 172.63L247.027 184.435C246.946 184.613 246.768 184.711 246.589 184.711Z" fill="#73325A"/>
<path d="M259.019 178.8C258.97 178.8 258.922 178.783 258.857 178.767C258.597 178.686 258.467 178.41 258.548 178.15L261.145 170.405C261.226 170.145 261.502 170.015 261.761 170.096C262.021 170.177 262.151 170.454 262.069 170.713L259.473 178.459C259.408 178.67 259.23 178.8 259.019 178.8Z" fill="#73325A"/>
<path d="M280.016 9.02163C280.016 9.02163 291.18 2.00711 302.084 10.8564C312.371 19.2187 307.568 35.6995 303.804 32.9392C300.575 30.5848 325.742 22.5473 333.628 41.204C342.568 62.345 322.431 74.3444 299.471 63.8875H266.159L230.737 74.9452C230.737 74.9452 212.742 65.7873 222.526 47.9263C231.564 31.4454 253.162 37.3233 250.728 41.3989C247.304 47.1144 232.668 29.026 242.955 11.9444C253.827 -6.11155 278.523 0.6107 280.016 9.02163Z" fill="white"/>
<path d="M230.688 75.4648L230.51 75.3673C230.185 75.205 222.348 71.1294 219.849 63.0594C218.372 58.2694 219.119 53.0897 222.088 47.6665C227.589 37.648 237.146 36.4789 240.992 36.4465C241.251 36.4465 241.511 36.4465 241.77 36.4465C240.018 33.1503 238.98 29.2696 238.866 25.4538C238.704 20.5988 239.937 15.955 242.533 11.6683C245.454 6.81334 249.527 3.38727 254.605 1.51997C258.808 -0.0225723 263.676 -0.412264 268.284 0.448314C274.418 1.58493 279.237 4.73496 280.34 8.25846C281.379 7.70639 283.748 6.60226 286.896 6.11514C290.79 5.51436 296.631 5.77415 302.408 10.4505C305.994 13.3732 308.233 17.6924 308.687 22.6123C308.931 25.2265 308.655 27.5809 308.12 29.4157C309.564 29.0585 311.186 28.8149 312.858 28.7175C317.563 28.4577 329.068 29.1072 334.082 40.9767C335.964 45.4257 336.645 49.6149 336.11 53.4307C335.623 56.9867 334.033 60.153 331.518 62.6048C328.208 65.836 323.502 67.7358 317.888 68.1092C312.079 68.4989 305.686 67.2 299.374 64.3422H266.24L230.688 75.4648ZM241.219 37.4369C241.154 37.4369 241.089 37.4369 241.008 37.4369C237.325 37.4694 228.189 38.5898 222.948 48.1536C220.108 53.317 219.395 58.237 220.79 62.7834C222.948 69.8142 229.633 73.7761 230.785 74.4256L266.077 63.4004H299.585L299.682 63.4491C305.88 66.2744 312.16 67.5572 317.823 67.1837C323.194 66.8265 327.688 65.0079 330.836 61.9553C333.222 59.6334 334.682 56.7269 335.152 53.3495C335.655 49.7124 334.99 45.7017 333.189 41.4151C330.934 36.0892 327.088 32.517 321.733 30.7959C316.119 28.9935 310.797 29.8541 308.769 30.325C308.412 30.4062 308.071 30.4874 307.763 30.5848C307.454 31.3966 307.081 32.0624 306.708 32.5657C305.75 33.816 304.566 34.1245 303.544 33.3776C303.138 33.0853 302.976 32.6469 303.106 32.2085C303.365 31.3317 304.891 30.4387 307.016 29.7892C307.617 28.0031 307.99 25.535 307.73 22.7584C307.292 18.0983 305.183 14.0065 301.808 11.2624C297.394 7.69016 292.429 6.29375 287.074 7.12185C283.066 7.73887 280.34 9.44379 280.308 9.46003L279.691 9.84973L279.561 9.13528C278.961 5.75792 274.255 2.59164 268.138 1.45503C263.692 0.626927 259.019 1.00038 254.979 2.49421C250.111 4.28032 246.216 7.56026 243.409 12.2366C240.927 16.3771 239.726 20.8262 239.888 25.5025C240.002 29.2696 241.057 33.134 242.841 36.349C242.89 36.4302 242.923 36.5114 242.971 36.5764C246.866 36.8686 250.224 38.1676 251.182 39.8238C251.539 40.4408 251.539 41.1066 251.198 41.6911C250.679 42.5679 249.9 43.0226 248.926 43.0063C246.914 42.9739 244.399 40.8468 242.403 37.5181C241.981 37.4532 241.608 37.4369 241.219 37.4369ZM243.555 37.5668C245.275 40.1973 247.369 41.9672 248.894 41.9834C249.494 41.9834 249.965 41.7236 250.306 41.139C250.468 40.863 250.468 40.5707 250.289 40.2622C249.64 39.1419 247.028 37.9565 243.555 37.5668ZM303.998 32.4683C303.998 32.4683 304.014 32.5008 304.079 32.5495C304.647 32.9717 305.264 32.7606 305.897 31.9325C306.107 31.6727 306.302 31.3317 306.497 30.942C304.761 31.5753 303.998 32.241 303.998 32.4683Z" fill="#FFCF2D"/>
<path d="M287.204 33.0699C287.139 33.0699 287.058 33.0537 286.993 33.0212C286.879 32.9725 284.364 31.7547 282.027 29.2866C279.594 26.7049 278.328 23.7335 278.247 20.5672C277.565 21.785 276.543 23.3275 275.131 24.8863C272.324 27.9552 267.343 31.6086 259.522 31.6086C259.473 31.6086 259.408 31.6086 259.359 31.6086C256.552 31.5923 254.573 30.4232 253.761 28.3286C252.804 25.8118 253.81 22.3208 256.114 20.2262C256.309 20.0476 256.617 20.0638 256.796 20.2587C256.974 20.4535 256.958 20.762 256.763 20.9406C254.735 22.7917 253.842 25.8118 254.67 27.9714C255.335 29.6926 256.958 30.6181 259.359 30.6343C259.408 30.6343 259.473 30.6343 259.522 30.6343C265.509 30.6343 270.523 28.4748 274.417 24.2368C277.338 21.0381 278.49 17.8068 278.506 17.7744C278.587 17.5308 278.847 17.4009 279.09 17.4659C279.334 17.5308 279.496 17.7744 279.447 18.0342C278.701 21.9474 279.804 25.5033 282.725 28.6209C284.932 30.9753 287.398 32.1606 287.415 32.1769C287.658 32.2905 287.755 32.5828 287.642 32.8264C287.561 32.9725 287.382 33.0699 287.204 33.0699Z" fill="#FFCF2D"/>
<path d="M299.747 64.5704L291.228 41.9355H267.019L265.12 64.5704L275.554 94.5769L299.747 64.5704Z" fill="#A0505A"/>
<path d="M280.194 59.7804L267.424 71.0653L265.12 64.5704L267.019 41.9355H288.47V42.3577C288.454 49.1287 285.419 55.5262 280.194 59.7804Z" fill="#73325A"/>
<path d="M296.761 37.5342V38.4435C296.761 40.9115 294.749 42.925 292.283 42.925H287.415C286.506 49.8258 280.6 55.1679 273.46 55.1679C269.566 55.1679 266.045 53.5929 263.497 51.0436C260.95 48.4944 259.376 44.9709 259.376 41.0739V31.5913C274.353 31.705 278.653 19.3809 278.653 19.3809C277.663 28.6361 286.101 32.6143 287.382 33.1501V33.0527H292.283C294.749 33.0527 296.761 35.0661 296.761 37.5342Z" fill="#A0505A"/>
<path d="M281.751 31.9488C281.622 31.9488 281.492 31.9001 281.394 31.8027C279.22 29.4807 275.926 29.3833 275.894 29.3833C275.618 29.3833 275.407 29.156 275.423 28.88C275.423 28.6039 275.65 28.3928 275.926 28.4091C276.072 28.4091 279.642 28.5065 282.108 31.1207C282.287 31.3156 282.287 31.6241 282.092 31.8027C281.995 31.9001 281.865 31.9488 281.751 31.9488Z" fill="#73325A"/>
<path d="M275.18 40.1486C275.727 40.1486 276.17 39.3708 276.17 38.4112C276.17 37.4517 275.727 36.6738 275.18 36.6738C274.634 36.6738 274.19 37.4517 274.19 38.4112C274.19 39.3708 274.634 40.1486 275.18 40.1486Z" fill="#73325A"/>
<path d="M261.664 40.1486C262.21 40.1486 262.653 39.3708 262.653 38.4112C262.653 37.4517 262.21 36.6738 261.664 36.6738C261.117 36.6738 260.674 37.4517 260.674 38.4112C260.674 39.3708 261.117 40.1486 261.664 40.1486Z" fill="#73325A"/>
<path d="M269.404 47.6017C269.355 47.6017 269.306 47.6017 269.274 47.6017C268.219 47.5692 267.473 47.2282 267.44 47.212C267.197 47.0983 267.1 46.806 267.213 46.5625C267.327 46.3189 267.619 46.2215 267.862 46.3352C267.96 46.3839 270.264 47.4231 272.389 45.3609C272.584 45.1661 272.892 45.1823 273.071 45.3772C273.266 45.572 273.249 45.8805 273.055 46.0591C271.757 47.3256 270.377 47.6017 269.404 47.6017Z" fill="#73325A"/>
<path d="M288.665 39.7906C288.389 39.7906 288.178 39.5795 288.178 39.3035C288.178 36.9166 290.109 34.9844 292.494 34.9844C292.77 34.9844 292.981 35.1955 292.981 35.4715C292.981 35.7475 292.77 35.9586 292.494 35.9586C290.644 35.9586 289.151 37.4524 289.151 39.3035C289.151 39.5795 288.94 39.7906 288.665 39.7906Z" fill="#73325A"/>
<path d="M255.076 32.1094C254.962 32.1094 254.832 32.0607 254.735 31.9795C254.54 31.8009 254.524 31.4924 254.719 31.2976C257.185 28.6834 260.755 28.5859 260.901 28.5859C261.177 28.5859 261.388 28.797 261.404 29.0568C261.404 29.3329 261.193 29.5439 260.933 29.5602C260.901 29.5602 257.607 29.6576 255.433 31.9795C255.335 32.0607 255.206 32.1094 255.076 32.1094Z" fill="#73325A"/>
<path d="M261.129 45.1982C257.786 45.1982 255.076 42.0482 255.076 38.1675C255.076 34.2868 257.786 31.1367 261.129 31.1367C264.471 31.1367 267.181 34.2868 267.181 38.1675C267.181 42.0482 264.471 45.1982 261.129 45.1982ZM261.129 32.111C258.321 32.111 256.05 34.8226 256.05 38.1675C256.05 41.5124 258.321 44.224 261.129 44.224C263.936 44.224 266.207 41.5124 266.207 38.1675C266.207 34.8226 263.936 32.111 261.129 32.111Z" fill="#FE5244"/>
<path d="M276.073 45.1982C272.73 45.1982 270.021 42.0482 270.021 38.1675C270.021 34.2868 272.73 31.1367 276.073 31.1367C279.416 31.1367 282.125 34.2868 282.125 38.1675C282.125 42.0482 279.416 45.1982 276.073 45.1982ZM276.073 32.111C273.266 32.111 270.994 34.8226 270.994 38.1675C270.994 41.5124 273.266 44.224 276.073 44.224C278.88 44.224 281.152 41.5124 281.152 38.1675C281.152 34.8226 278.88 32.111 276.073 32.111Z" fill="#FE5244"/>
<path d="M270.248 38.5576C270.183 38.5089 268.512 37.356 267.003 38.5413L266.402 37.7782C268.074 36.4792 270.021 37.1936 270.816 37.7619L270.248 38.5576Z" fill="#FE5244"/>
<path d="M170.703 181.59H77.426C74.9209 181.59 72.6814 180.071 71.7515 177.756L46.226 114.666C45.0114 111.648 47.2318 108.346 50.4771 108.346H143.754C146.259 108.346 148.499 109.864 149.429 112.18L174.954 175.269C176.188 178.287 173.967 181.59 170.703 181.59Z" fill="white"/>
<path fill-rule="evenodd" clip-rule="evenodd" d="M46.7529 114.454C46.753 114.454 46.7531 114.454 46.7531 114.454L72.2788 177.544C73.1221 179.644 75.1525 181.021 77.4249 181.021H170.702C173.563 181.021 175.506 178.128 174.426 175.486L148.9 112.394L148.899 112.393C148.056 110.293 146.026 108.916 143.753 108.916H50.4761C47.637 108.916 45.6884 111.808 46.7529 114.454ZM45.6968 114.88C44.3326 111.49 46.8248 107.777 50.4761 107.777H143.753C146.491 107.777 148.939 109.437 149.956 111.968L175.48 175.055C176.867 178.448 174.37 182.16 170.702 182.16H77.4249C74.6871 182.16 72.2387 180.5 71.2221 177.969L45.6968 114.88Z" fill="#FFCF2D"/>
<path d="M166.376 182.046H77.3876C75.0153 182.046 72.8708 180.603 71.9788 178.401L47.6299 118.216C46.4723 115.331 48.5789 112.199 51.6913 112.199H140.679C143.052 112.199 145.196 113.642 146.088 115.843L170.437 176.029C171.595 178.914 169.469 182.046 166.376 182.046Z" fill="#FFCF2D"/>
<path d="M111.738 154.676C109.119 154.676 106.652 153.652 104.792 151.792C103.274 150.273 102.438 148.261 102.438 146.136C102.438 143.991 103.274 141.979 104.792 140.479C106.025 139.246 107.676 138.562 109.422 138.562C111.168 138.562 112.819 139.246 114.053 140.479C116.16 142.586 116.16 146.003 114.053 148.109C112.307 149.856 109.479 149.856 107.733 148.109C107.43 147.806 107.43 147.331 107.733 147.028C108.037 146.724 108.511 146.724 108.815 147.028C109.973 148.185 111.833 148.185 112.99 147.028C114.509 145.509 114.509 143.061 112.99 141.542C112.041 140.593 110.77 140.062 109.422 140.062C108.075 140.062 106.803 140.593 105.855 141.542C104.621 142.776 103.957 144.389 103.957 146.136C103.957 147.863 104.64 149.495 105.855 150.729C107.43 152.304 109.498 153.158 111.719 153.158C113.939 153.158 116.027 152.304 117.583 150.729C117.887 150.425 118.361 150.425 118.665 150.729C118.968 151.032 118.968 151.507 118.665 151.811C116.824 153.652 114.357 154.676 111.738 154.676Z" fill="white"/>
<path d="M204.085 188.273H77.5393C76.078 188.273 74.9014 187.096 74.9014 185.634V184.363C74.9014 182.901 76.078 181.725 77.5393 181.725H204.085C205.546 181.725 206.723 182.901 206.723 184.363V185.634C206.704 187.096 205.527 188.273 204.085 188.273Z" fill="white"/>
<path fill-rule="evenodd" clip-rule="evenodd" d="M77.5378 182.293C76.391 182.293 75.4693 183.215 75.4693 184.362V185.634C75.4693 186.781 76.391 187.702 77.5378 187.702H204.084C205.206 187.702 206.135 186.785 206.152 185.63V184.362C206.152 183.215 205.23 182.293 204.084 182.293H77.5378ZM74.3306 184.362C74.3306 182.586 75.7621 181.154 77.5378 181.154H204.084C205.859 181.154 207.291 182.586 207.291 184.362V185.637L207.291 185.641C207.268 187.407 205.844 188.841 204.084 188.841H77.5378C75.7621 188.841 74.3306 187.41 74.3306 185.634V184.362Z" fill="#FFCF2D"/>
<path d="M59.0374 165.885L55.2424 192.771C55.0184 194.367 53.6612 195.54 52.0535 195.54H44.6348C43.0272 195.54 41.6699 194.354 41.4459 192.771L37.6509 165.885C37.6509 168.298 42.4342 170.249 48.3376 170.249C54.2541 170.249 59.0374 168.285 59.0374 165.885Z" fill="white"/>
<path d="M52.0558 195.938H44.637C42.8449 195.938 41.3032 194.606 41.0528 192.826L37.3369 166.467C37.2842 166.282 37.2578 166.084 37.2578 165.887C37.2578 165.676 37.4159 165.504 37.6268 165.491C37.8376 165.478 38.0221 165.623 38.0484 165.834L38.1143 166.295C38.6546 168.089 42.6209 169.856 48.3398 169.856C54.0719 169.856 58.0514 168.089 58.5784 166.295L58.6443 165.834C58.6707 165.623 58.8552 165.478 59.066 165.491C59.2768 165.504 59.435 165.676 59.435 165.887C59.435 166.084 59.4086 166.282 59.3559 166.467L55.6399 192.826C55.3896 194.633 53.8742 195.938 52.0558 195.938ZM38.3515 167.983L41.8435 192.721C42.0411 194.105 43.2402 195.147 44.637 195.147H52.0558C53.4789 195.147 54.6517 194.131 54.8493 192.721L58.3413 167.983C56.5623 169.579 52.7937 170.647 48.3398 170.647C43.8859 170.647 40.1173 169.566 38.3515 167.983Z" fill="#66B0F0"/>
<path d="M56.6546 168.762L53.2681 192.563C53.0177 194.343 51.476 195.675 49.6839 195.675H47.1407C45.3486 195.675 43.8068 194.343 43.5565 192.563L40.1699 168.828C40.4335 168.946 40.7234 169.052 41.0133 169.157L44.3339 192.457C44.5184 193.736 45.5462 194.725 46.8112 194.87C46.9166 194.884 47.0221 194.897 47.1407 194.897H49.6839C49.842 194.897 50.0001 194.884 50.1451 194.857C51.3442 194.659 52.3061 193.697 52.4774 192.457L55.7981 169.105C56.1143 168.999 56.3911 168.88 56.6546 168.762Z" fill="#66B0F0"/>
<path d="M53.1633 169.816L50.1458 194.857L50.1062 195.2C50.0799 195.398 49.9086 195.543 49.7109 195.543C49.6977 195.543 49.6845 195.543 49.6582 195.543C49.4342 195.516 49.2892 195.319 49.3156 195.108L49.3419 194.897L52.3463 169.961C52.6362 169.909 52.8998 169.856 53.1633 169.816Z" fill="#66B0F0"/>
<path d="M47.2996 195.543C47.2864 195.543 47.2732 195.543 47.2469 195.543C47.0492 195.543 46.8779 195.398 46.8516 195.2L46.812 194.87L43.7944 169.869C44.058 169.922 44.3347 169.961 44.6114 170.001L47.6158 194.896L47.6422 195.107C47.6686 195.318 47.5104 195.516 47.2996 195.543Z" fill="#66B0F0"/>
<path d="M59.4223 165.887C59.4223 166.995 58.3813 167.997 56.6683 168.775C56.4047 168.894 56.1148 169.012 55.8249 169.118C55.0343 169.395 54.1514 169.645 53.1763 169.83C52.9128 169.883 52.636 169.922 52.3593 169.975C51.2129 170.146 49.9611 170.252 48.6565 170.265C48.5511 170.265 48.4589 170.265 48.3535 170.265C48.2085 170.265 48.0636 170.265 47.9186 170.265C46.759 170.252 45.6522 170.159 44.6243 170.014C44.3476 169.975 44.0841 169.935 43.8074 169.883C42.7927 169.698 41.8571 169.461 41.027 169.17C40.7371 169.065 40.4472 168.959 40.1836 168.841C38.3784 168.063 37.2847 167.034 37.2847 165.9C37.2847 165.808 37.2978 165.716 37.311 165.623C37.68 163.342 42.4765 161.549 48.3535 161.549C54.2305 161.549 59.0401 163.355 59.3959 165.623C59.4091 165.702 59.4223 165.795 59.4223 165.887Z" fill="#66B0F0"/>
<path d="M48.814 194.805C48.814 194.831 48.814 194.871 48.8008 194.897C48.7613 195.068 48.6032 195.2 48.4187 195.2C48.2342 195.2 48.0761 195.068 48.0365 194.897C48.0234 194.871 48.0234 194.844 48.0234 194.818L47.8916 170.397C47.8916 170.344 47.9048 170.305 47.9179 170.252C48.0629 170.252 48.2079 170.252 48.3528 170.252C48.4582 170.252 48.5636 170.252 48.6559 170.252C48.6691 170.292 48.6822 170.331 48.6822 170.384L48.814 194.805Z" fill="#66B0F0"/>
<path d="M48.4192 169.448C46.0737 169.382 43.9258 169.026 42.1864 168.459L35.9668 142.363H41.9624L48.4192 169.448Z" fill="#FFCF2D"/>
<path d="M42.7399 145.659H40.2889C40.1044 145.659 39.9595 145.514 39.9595 145.33C39.9595 145.145 40.1044 145 40.2889 145H42.5818L42.7399 145.659Z" fill="white"/>
<path d="M43.3986 148.429H40.9476C40.7631 148.429 40.6182 148.284 40.6182 148.099C40.6182 147.915 40.7631 147.77 40.9476 147.77H43.2404L43.3986 148.429Z" fill="white"/>
<path d="M44.0578 151.198H41.6068C41.4223 151.198 41.2773 151.053 41.2773 150.869C41.2773 150.684 41.4223 150.539 41.6068 150.539H43.8996L44.0578 151.198Z" fill="white"/>
<path d="M44.7291 153.966H42.2782C42.0937 153.966 41.9487 153.821 41.9487 153.636C41.9487 153.452 42.0937 153.307 42.2782 153.307H44.571L44.7291 153.966Z" fill="white"/>
<path d="M45.3883 156.735H42.9373C42.7529 156.735 42.6079 156.59 42.6079 156.406C42.6079 156.221 42.7529 156.076 42.9373 156.076H45.2302L45.3883 156.735Z" fill="white"/>
<path d="M46.0476 159.505H43.7152C43.5307 159.505 43.3857 159.36 43.3857 159.175C43.3857 158.991 43.5307 158.846 43.7152 158.846H45.8894L46.0476 159.505Z" fill="white"/>
<path d="M46.7057 162.275H44.2415C44.0571 162.275 43.9121 162.129 43.9121 161.945C43.9121 161.76 44.0571 161.615 44.2415 161.615H46.5476L46.7057 162.275Z" fill="white"/>
<path d="M47.3659 165.042H44.9017C44.7172 165.042 44.5723 164.897 44.5723 164.712C44.5723 164.528 44.7172 164.383 44.9017 164.383H47.2077L47.3659 165.042Z" fill="white"/>
<path d="M48.0235 167.798C47.9971 167.812 47.9707 167.812 47.9312 167.812H45.4276C45.2431 167.812 45.0981 167.667 45.0981 167.482C45.0981 167.297 45.2431 167.152 45.4276 167.152H47.8653L48.0235 167.798Z" fill="white"/>
<path d="M93.42 198.72C93.42 198.72 93.4068 198.734 93.42 198.72L92.8665 200.738C92.8534 200.791 92.8138 200.817 92.7743 200.804L64.3116 192.299C64.272 192.286 64.2589 192.233 64.272 192.193L64.8123 190.189C64.8123 190.163 64.8387 190.149 64.8518 190.136C64.865 190.123 64.8914 190.123 64.9045 190.123L93.3673 198.628C93.3805 198.628 93.3936 198.654 93.4068 198.668C93.42 198.681 93.42 198.707 93.42 198.72Z" fill="#FE5244"/>
<path d="M65.234 190.241L64.6542 192.39C64.6146 192.535 64.496 192.628 64.3774 192.601L63.7317 192.403C63.6263 192.377 63.5604 192.219 63.6 192.074L64.1798 189.924C64.2193 189.779 64.3379 189.687 64.4565 189.713L65.1022 189.911C65.2076 189.938 65.2735 190.083 65.234 190.241Z" fill="#FFCF2D"/>
<path d="M62.6114 190.083L62.3479 191.086C62.2688 191.362 62.4401 191.653 62.73 191.745L63.6392 192.009L64.1795 189.991L63.2703 189.727C62.9804 189.648 62.6905 189.807 62.6114 190.083Z" fill="#FE5244"/>
<path d="M93.3386 198.707L94.1951 199.577L94.8539 200.25L93.9579 200.461L92.7983 200.725L93.3386 198.707Z" fill="white"/>
<path d="M94.9218 200.263C94.9086 200.316 94.8822 200.343 94.8559 200.343L92.8003 200.817C92.7739 200.817 92.7475 200.817 92.7344 200.791C92.7212 200.765 92.7212 200.738 92.7212 200.712L93.2615 198.707C93.2746 198.681 93.2878 198.655 93.3142 198.641C93.3405 198.628 93.3669 198.628 93.3801 198.655L94.8954 200.197C94.9218 200.197 94.935 200.224 94.9218 200.263ZM92.9057 200.606L94.6846 200.197L93.3801 198.866L92.9057 200.606Z" fill="#FE5244"/>
<path d="M94.1962 199.578L94.855 200.251L93.959 200.462L94.1962 199.578Z" fill="#F0E1D4"/>
<path d="M94.9219 200.264C94.9087 200.317 94.8823 200.343 94.856 200.343L93.9599 200.554C93.9336 200.554 93.9072 200.554 93.894 200.528C93.8809 200.502 93.8809 200.475 93.8809 200.449L94.118 199.578C94.1312 199.552 94.1444 199.526 94.1708 199.513C94.1971 199.499 94.2235 199.499 94.2366 199.526L94.8955 200.198C94.9219 200.198 94.935 200.225 94.9219 200.264Z" fill="#FE5244"/>
<path d="M53.2423 151.923C53.2423 152.002 53.2423 152.094 53.2292 152.173L51.0812 169.315C50.2247 169.408 49.3418 169.46 48.4194 169.46L49.4736 151.804C49.5395 150.815 50.3565 150.037 51.358 150.037C52.4121 150.037 53.2423 150.894 53.2423 151.923Z" fill="#FE5244"/>
</svg>
