<svg width="495" height="547" viewBox="0 0 495 547" fill="none" xmlns="http://www.w3.org/2000/svg">
<path d="M157.959 423.438L161.202 432.19L176.19 472.554C181.813 476.484 188.913 479.009 196.877 479.009C197.817 479.009 198.949 478.781 199.909 478.724C208.238 478.155 216.221 474.548 221.748 469.953L217.276 421.274L216.95 417.742C192.789 427.007 164.618 425.45 157.959 423.438Z" fill="#E57281"/>
<path d="M157.959 423.438L164.311 440.525C183.693 443.126 212.095 427.444 217.257 421.274L216.931 417.742C192.79 427.007 164.618 425.45 157.959 423.438Z" fill="#9A3B82"/>
<path d="M175.883 472.496L180.47 520.018C181.295 532.548 191.005 542.136 202.519 542.136C203.037 542.136 203.555 542.117 204.093 542.079C216.298 541.168 225.49 529.795 224.626 516.695L221.844 474.699L221.556 470.199C219.1 472.478 216.24 474.433 213.074 475.952C209.101 477.85 204.669 479.085 199.929 479.445C198.969 479.521 198.029 479.559 197.088 479.559C194.363 479.559 191.696 479.255 189.163 478.686C189.086 478.667 188.99 478.648 188.913 478.629C184.173 477.528 179.836 475.496 176.229 472.743C176.094 472.667 175.979 472.591 175.883 472.496Z" fill="white"/>
<path d="M202.519 542.61C203.056 542.61 203.575 542.591 204.131 542.553C216.586 541.623 225.989 530.004 225.106 516.657L222.324 474.66L221.978 469.154L221.23 469.838C218.773 472.116 215.952 474.034 212.863 475.515C208.794 477.451 204.438 478.609 199.89 478.97C198.931 479.046 198.009 479.084 197.088 479.084C194.44 479.084 191.811 478.799 189.278 478.229C189.239 478.229 189.201 478.21 189.143 478.191C189.105 478.191 189.067 478.173 189.028 478.173C184.403 477.109 180.086 475.097 176.516 472.363L176.459 472.325C176.344 472.249 176.267 472.211 176.209 472.154L175.269 471.224L179.99 520.055C180.393 526.206 182.926 531.902 187.148 536.098C191.35 540.294 196.8 542.61 202.519 542.61ZM221.134 471.224L221.364 474.736L224.147 516.733C224.991 529.567 215.972 540.73 204.054 541.604C203.517 541.642 203.018 541.661 202.519 541.661C197.069 541.661 191.849 539.458 187.819 535.433C183.77 531.389 181.333 525.903 180.949 519.979L176.459 473.502C180.028 476.103 184.288 478.04 188.798 479.084C188.836 479.084 188.875 479.103 188.932 479.122C188.971 479.122 189.009 479.141 189.048 479.141C191.677 479.729 194.363 480.033 197.088 480.033C198.048 480.033 198.988 479.995 199.967 479.919C204.63 479.558 209.121 478.381 213.285 476.388C216.144 475.002 218.793 473.274 221.134 471.224Z" fill="#FFCF2D"/>
<path d="M202.174 532.586C202.634 532.586 203.076 532.567 203.536 532.529C214.091 531.732 222.093 521.878 221.345 510.544L218.793 472.705L217.833 472.762L220.386 510.601C221.096 521.403 213.496 530.801 203.46 531.561C203.018 531.599 202.596 531.618 202.174 531.618C192.656 531.618 184.672 523.606 184.001 513.353L180.758 475.325L179.798 475.401L183.041 513.429C183.387 518.651 185.536 523.492 189.105 527.042C192.675 530.631 197.319 532.586 202.174 532.586Z" fill="#FFCF2D"/>
<path d="M188.952 478.211C191.485 478.724 194.344 478.819 197.069 478.819C198.01 478.819 198.95 478.781 199.909 478.724C204.649 478.401 209.102 477.262 213.055 475.515L214.321 469.364C215.127 466.744 213.112 464.105 210.33 464.2L191.907 464.731C189.566 464.788 187.781 466.801 187.992 469.098L188.952 478.211Z" fill="#FFCF2D"/>
<path d="M189.144 478.021L191.466 506.898C191.869 512.499 197.242 516.638 202.308 515.727L202.711 515.689C209.927 514.379 215.454 506.936 214.513 498.962L213.055 475.496C209.082 477.243 204.649 478.382 199.909 478.705C198.95 478.781 198.01 478.8 197.069 478.8C194.344 478.819 191.677 478.534 189.144 478.021Z" fill="#FFCF2D"/>
<path d="M191.964 509.785C192.003 509.785 192.041 509.785 192.079 509.766L213.093 505.019C214.475 504.715 215.031 503.557 214.974 502.57C214.916 501.564 214.244 500.463 212.824 500.292L192.732 497.956C191.676 497.824 191.235 497.026 191.178 496.381C191.12 495.735 191.408 494.862 192.406 494.558L211.654 488.52C213.208 488.027 214.148 486.679 214.072 485.065C213.976 483.451 212.882 482.217 211.289 481.894L196.129 479.293C196.839 479.293 197.568 479.274 198.316 479.255C205.091 479.047 210.118 478.078 213.285 476.351C213.515 476.218 213.592 475.933 213.477 475.705C213.342 475.477 213.054 475.401 212.824 475.515C205.589 479.464 189.354 478.116 189.182 478.097C188.932 478.078 188.702 478.249 188.664 478.515C188.625 478.762 188.798 479.009 189.067 479.047L211.116 482.825C212.517 483.11 213.074 484.23 213.112 485.122C213.17 485.995 212.728 487.191 211.366 487.628L192.118 493.666C190.679 494.121 190.122 495.412 190.237 496.476C190.333 497.558 191.12 498.735 192.636 498.906L212.728 501.241C213.649 501.355 213.995 502.057 214.033 502.627C214.052 503.196 213.784 503.918 212.901 504.108L191.888 508.854C191.638 508.911 191.465 509.158 191.523 509.424C191.542 509.633 191.753 509.785 191.964 509.785Z" fill="white"/>
<path d="M118.312 316.643L157.959 423.438C164.618 425.45 196.033 428.108 226.699 414.04L202.577 303.638C200.331 286.93 185.939 274.438 168.878 274.438H151.147C128.867 274.419 112.593 295.303 118.312 316.643Z" fill="#FE5244"/>
<path d="M170.605 414.173C173.522 414.173 176.708 414.078 180.104 413.85C191.446 413.09 208.449 410.584 225.029 402.971C225.317 402.838 225.451 402.496 225.317 402.212C225.182 401.927 224.837 401.794 224.549 401.927C193.979 415.957 159.935 413.413 153.526 411.496C153.219 411.401 152.893 411.572 152.816 411.875C152.72 412.179 152.893 412.502 153.2 412.578C155.598 413.318 161.893 414.173 170.605 414.173Z" fill="white"/>
<path d="M105.09 425.545L109.081 432.55L134.624 476.768C144.468 480.622 156.079 482.046 166.48 479.882L167.785 479.521C172.928 478.458 178.186 475.61 181.909 472.42L163.275 423.152C163.275 423.152 163.256 423.152 163.237 423.152C156.808 425.26 134.701 431.183 105.09 425.545Z" fill="#E57281"/>
<path d="M105.09 425.545L113.514 440.221C145.946 445.347 164.33 426.039 164.33 426.039L163.255 423.172C156.808 425.26 134.7 431.184 105.09 425.545Z" fill="#9A3B82"/>
<path d="M50.4355 333.577L94.6691 423.494C132.109 432.759 156.865 425.26 163.255 423.171L116.968 300.694C113.802 293.271 108.544 287.138 102.038 282.867C95.5327 278.595 87.7798 276.184 79.6431 276.184C48.8235 276.184 35.5438 306.865 50.4355 333.577Z" fill="#FE5244"/>
<path d="M125.431 418.9C129.02 418.9 132.551 418.748 136.063 418.463C144.43 417.78 152.432 416.242 159.226 414.02C159.533 413.926 159.686 413.603 159.59 413.299C159.494 412.995 159.168 412.843 158.861 412.938C152.164 415.122 144.238 416.64 135.967 417.324C121.21 418.539 105.685 417.172 89.8335 413.242C89.5264 413.166 89.2194 413.356 89.1426 413.66C89.0658 413.963 89.2578 414.267 89.5648 414.343C101.77 417.381 113.802 418.9 125.431 418.9Z" fill="white"/>
<path d="M117.513 300.464L185.539 481.893L184.459 482.289L116.434 300.861L117.513 300.464Z" fill="white"/>
<path d="M135.007 476.9L136.504 480.792L153.468 524.706C158.324 539.762 174.29 548.704 188.318 545.268L189.086 545.021C198.93 542.61 205.186 530.877 201.329 520.511L181.947 473.654L181.544 472.686C179.107 474.85 176.266 476.635 173.1 477.926C171.411 478.609 169.627 479.16 167.765 479.558L166.46 479.919C160.953 481.058 155.272 481.267 149.669 480.622C144.641 480.014 139.69 478.761 135.007 476.9Z" fill="white"/>
<path d="M182.12 546.484C184.25 546.484 186.361 546.237 188.433 545.724H188.472L189.22 545.478C193.941 544.319 198.086 540.978 200.581 536.326C203.267 531.333 203.69 525.504 201.77 520.359L182.388 473.483L181.736 471.889L181.237 472.344C178.8 474.509 175.998 476.255 172.927 477.489C171.239 478.173 169.473 478.705 167.669 479.103H167.65L166.364 479.464C160.991 480.565 155.387 480.812 149.746 480.147C144.737 479.54 139.843 478.306 135.199 476.464L134.182 476.066L136.063 480.964L153.027 524.859C155.387 532.187 160.435 538.377 167.228 542.326C171.93 545.079 177.073 546.484 182.12 546.484ZM188.184 544.813C181.467 546.446 174.194 545.288 167.688 541.509C161.106 537.693 156.213 531.656 153.91 524.555V524.536L136.946 480.622L135.833 477.736C140.246 479.388 144.871 480.527 149.611 481.097C155.368 481.761 161.068 481.514 166.556 480.394H166.595L167.88 480.034C169.742 479.635 171.546 479.084 173.273 478.382C176.228 477.167 178.953 475.534 181.352 473.502L181.505 473.863L200.888 520.72C202.711 525.618 202.289 531.143 199.736 535.909C197.357 540.332 193.442 543.503 188.971 544.585H188.932L188.184 544.813Z" fill="#FFCF2D"/>
<path d="M179.356 536.136C181.141 536.136 182.925 535.927 184.672 535.49L184.71 535.471L185.324 535.262C189.316 534.275 192.808 531.465 194.9 527.554C197.145 523.358 197.51 518.46 195.917 514.112L179.49 474.641C179.394 474.394 179.106 474.28 178.857 474.375C178.608 474.47 178.492 474.755 178.588 475.002L195.015 514.454C196.531 518.536 196.186 523.15 194.056 527.118C192.079 530.801 188.817 533.44 185.075 534.37L185.036 534.389L184.422 534.598C178.819 535.965 172.755 534.997 167.324 531.845C161.816 528.655 157.729 523.624 155.829 517.682V517.663L140.956 478.78C140.86 478.533 140.592 478.419 140.342 478.495C140.093 478.59 139.977 478.856 140.054 479.103L154.927 517.966C156.923 524.118 161.144 529.32 166.844 532.642C170.816 534.94 175.115 536.136 179.356 536.136Z" fill="#FFCF2D"/>
<path d="M146.195 474.736L149.688 480.583C155.272 481.229 160.952 481.02 166.479 479.881L167.784 479.52C169.646 479.14 171.43 478.59 173.119 477.887L171.737 468.394C171.411 466.116 169.185 464.578 166.901 465.053L148.863 468.793C146.138 469.344 144.775 472.381 146.195 474.736Z" fill="#FFCF2D"/>
<path d="M149.688 480.583L149.784 480.735L158.803 504.315C161.279 511.966 169.377 516.504 176.516 514.757L176.9 514.624C181.908 513.39 185.094 507.429 183.117 502.17L173.158 478.247L173.1 477.887C171.411 478.57 169.627 479.121 167.765 479.519L166.46 479.88C160.953 481.038 155.272 481.228 149.688 480.583Z" fill="#FFCF2D"/>
<path d="M162.68 509.082C162.795 509.082 162.91 509.082 163.025 509.063L183.751 506.841C184.019 506.822 184.211 506.576 184.173 506.31C184.134 506.044 183.904 505.854 183.636 505.892L162.91 508.113C161.778 508.227 161.144 507.487 160.933 506.803C160.722 506.139 160.837 505.171 161.835 504.639L177.974 496.114C179.356 495.393 179.663 493.988 179.375 492.925C179.087 491.862 178.089 490.798 176.516 490.874L156.136 491.786C154.908 491.843 154.236 491.007 154.025 490.267C153.814 489.526 153.967 488.463 155.061 487.894L173.349 478.249C173.58 478.135 173.676 477.85 173.561 477.622C173.445 477.394 173.158 477.3 172.927 477.414C172.908 477.432 170.548 478.515 166.537 479.369C162.833 480.166 156.942 480.926 149.822 480.053C149.554 480.015 149.323 480.204 149.285 480.47C149.246 480.736 149.438 480.964 149.707 481.002C156.98 481.894 163.006 481.116 166.786 480.299C167.228 480.204 167.631 480.109 168.034 480.015L154.639 487.077C153.142 487.856 152.816 489.393 153.123 490.552C153.449 491.71 154.524 492.849 156.213 492.754L176.593 491.843C177.687 491.805 178.301 492.545 178.473 493.191C178.646 493.836 178.512 494.785 177.552 495.298L161.413 503.823C160.012 504.563 159.705 506.006 160.051 507.088C160.338 508.113 161.279 509.082 162.68 509.082Z" fill="white"/>
<path d="M232.341 280.076C154.187 280.076 90.8313 217.395 90.8313 140.075C90.8313 62.7547 154.187 0.0742188 232.341 0.0742188C310.494 0.0742188 373.85 62.7547 373.85 140.075C373.85 217.395 310.494 280.076 232.341 280.076Z" fill="#D0F0E4"/>
<path d="M279.952 280.721C294.652 275.86 308.469 268.76 321 259.646C333.397 250.628 344.278 239.844 353.374 227.56C362.566 215.125 369.705 201.455 374.599 186.893C379.665 171.837 382.217 156.098 382.217 140.074H380.874C380.874 155.946 378.341 171.553 373.313 186.475C368.458 200.904 361.396 214.46 352.28 226.782C343.28 238.952 332.495 249.66 320.194 258.583C307.759 267.62 294.076 274.645 279.511 279.467L279.952 280.721Z" fill="#FFCF2D"/>
<path d="M232.341 231.454C234.241 231.454 236.14 231.397 238.021 231.283C238.558 231.245 238.961 230.809 238.923 230.277C238.885 229.745 238.443 229.347 237.906 229.385C236.064 229.498 234.183 229.555 232.341 229.555H232.206C231.669 229.555 231.247 229.973 231.247 230.505C231.247 231.036 231.669 231.454 232.206 231.454H232.341ZM225.49 231.207C225.989 231.207 226.411 230.827 226.449 230.334C226.488 229.802 226.085 229.347 225.566 229.309C223.686 229.176 221.767 228.967 219.905 228.72C219.387 228.644 218.888 229.005 218.831 229.536C218.754 230.049 219.119 230.543 219.656 230.6C221.575 230.865 223.513 231.055 225.451 231.207C225.451 231.207 225.47 231.207 225.49 231.207ZM244.642 230.638C244.68 230.638 244.718 230.638 244.776 230.638C246.695 230.391 248.614 230.068 250.514 229.688C251.032 229.593 251.377 229.081 251.262 228.568C251.147 228.056 250.648 227.714 250.13 227.828C248.269 228.188 246.388 228.511 244.507 228.758C243.989 228.834 243.605 229.309 243.682 229.821C243.759 230.296 244.181 230.638 244.642 230.638ZM213.15 229.461C213.592 229.461 213.995 229.157 214.091 228.701C214.206 228.188 213.88 227.676 213.361 227.581C211.519 227.182 209.658 226.727 207.835 226.233C207.316 226.1 206.798 226.385 206.645 226.897C206.51 227.41 206.798 227.923 207.316 228.075C209.178 228.587 211.078 229.062 212.958 229.461C213.016 229.461 213.093 229.461 213.15 229.461ZM256.866 228.169C256.943 228.169 257.039 228.15 257.115 228.132C258.977 227.619 260.838 227.049 262.661 226.423C263.16 226.252 263.429 225.701 263.256 225.208C263.084 224.714 262.527 224.448 262.028 224.619C260.243 225.227 258.42 225.796 256.597 226.309C256.079 226.442 255.791 226.973 255.926 227.486C256.06 227.885 256.444 228.169 256.866 228.169ZM201.156 226.062C201.54 226.062 201.924 225.815 202.058 225.436C202.231 224.942 201.982 224.391 201.483 224.22C199.698 223.575 197.932 222.872 196.205 222.132C195.726 221.923 195.15 222.151 194.939 222.626C194.728 223.1 194.958 223.67 195.438 223.879C197.203 224.638 199.026 225.36 200.83 226.005C200.945 226.043 201.06 226.062 201.156 226.062ZM268.63 224.05C268.764 224.05 268.879 224.031 269.013 223.974C270.779 223.214 272.564 222.379 274.291 221.524C274.77 221.278 274.943 220.708 274.713 220.252C274.463 219.778 273.888 219.607 273.427 219.835C271.738 220.689 270.011 221.505 268.265 222.246C267.785 222.455 267.555 223.005 267.766 223.499C267.9 223.841 268.265 224.05 268.63 224.05ZM189.777 221.069C190.122 221.069 190.448 220.879 190.621 220.556C190.87 220.101 190.698 219.512 190.218 219.265C188.548 218.392 186.879 217.462 185.267 216.474C184.806 216.208 184.231 216.341 183.943 216.797C183.674 217.253 183.808 217.822 184.269 218.107C185.919 219.094 187.608 220.063 189.316 220.955C189.469 221.031 189.623 221.069 189.777 221.069ZM279.722 218.373C279.894 218.373 280.067 218.335 280.22 218.24C281.871 217.253 283.521 216.189 285.095 215.088C285.536 214.785 285.632 214.196 285.325 213.759C285.018 213.323 284.423 213.228 283.982 213.531C282.427 214.595 280.815 215.639 279.203 216.607C278.743 216.873 278.608 217.462 278.877 217.917C279.088 218.202 279.395 218.373 279.722 218.373ZM179.164 214.595C179.471 214.595 179.759 214.462 179.951 214.196C180.258 213.778 180.162 213.171 179.721 212.867C178.186 211.785 176.67 210.627 175.192 209.45C174.789 209.127 174.175 209.184 173.849 209.582C173.522 209.981 173.58 210.589 173.983 210.911C175.48 212.127 177.034 213.304 178.608 214.405C178.781 214.538 178.972 214.595 179.164 214.595ZM289.912 211.253C290.123 211.253 290.334 211.177 290.506 211.044C292.003 209.848 293.481 208.576 294.901 207.266C295.285 206.905 295.323 206.317 294.959 205.918C294.594 205.538 293.999 205.501 293.596 205.861C292.195 207.133 290.756 208.367 289.278 209.544C288.875 209.867 288.799 210.475 289.144 210.873C289.355 211.139 289.643 211.253 289.912 211.253ZM169.55 206.735C169.799 206.735 170.068 206.64 170.241 206.431C170.605 206.051 170.586 205.444 170.202 205.083C168.821 203.792 167.477 202.444 166.192 201.077C165.827 200.697 165.232 200.678 164.829 201.039C164.445 201.4 164.426 201.988 164.791 202.387C166.115 203.792 167.497 205.159 168.897 206.469C169.07 206.659 169.32 206.735 169.55 206.735ZM299.046 202.843C299.296 202.843 299.564 202.748 299.737 202.539C301.061 201.153 302.347 199.691 303.575 198.21C303.921 197.811 303.863 197.204 303.441 196.881C303.038 196.539 302.424 196.596 302.097 197.014C300.888 198.457 299.622 199.881 298.336 201.248C297.972 201.627 297.991 202.235 298.374 202.596C298.566 202.767 298.816 202.843 299.046 202.843ZM161.087 197.678C161.298 197.678 161.509 197.602 161.682 197.47C162.104 197.147 162.162 196.539 161.835 196.141C160.646 194.679 159.494 193.16 158.4 191.641C158.093 191.204 157.498 191.109 157.057 191.413C156.616 191.717 156.52 192.305 156.827 192.742C157.94 194.299 159.13 195.856 160.339 197.337C160.53 197.545 160.799 197.678 161.087 197.678ZM306.933 193.293C307.24 193.293 307.528 193.16 307.72 192.894C308.833 191.337 309.927 189.723 310.944 188.091C311.232 187.654 311.078 187.065 310.637 186.781C310.196 186.496 309.601 186.648 309.313 187.084C308.315 188.679 307.26 190.255 306.166 191.774C305.859 192.21 305.955 192.799 306.396 193.103C306.55 193.236 306.741 193.293 306.933 193.293ZM153.948 187.54C154.121 187.54 154.294 187.502 154.447 187.407C154.908 187.141 155.042 186.553 154.773 186.097C153.795 184.483 152.854 182.832 151.991 181.18C151.741 180.705 151.166 180.534 150.705 180.781C150.225 181.028 150.053 181.597 150.302 182.053C151.185 183.743 152.144 185.452 153.142 187.084C153.296 187.388 153.622 187.54 153.948 187.54ZM313.439 182.775C313.784 182.775 314.111 182.585 314.283 182.262C315.185 180.572 316.03 178.826 316.797 177.079C317.008 176.604 316.797 176.035 316.317 175.826C315.838 175.617 315.262 175.826 315.051 176.3C314.283 178.009 313.458 179.718 312.575 181.37C312.326 181.825 312.518 182.414 312.978 182.642C313.132 182.737 313.285 182.775 313.439 182.775ZM148.268 176.547C148.402 176.547 148.517 176.528 148.652 176.471C149.131 176.262 149.362 175.712 149.151 175.218C148.402 173.491 147.711 171.725 147.078 169.959C146.905 169.466 146.349 169.2 145.85 169.39C145.351 169.56 145.082 170.111 145.274 170.605C145.927 172.408 146.637 174.212 147.404 175.978C147.539 176.338 147.884 176.547 148.268 176.547ZM318.428 171.478C318.831 171.478 319.196 171.231 319.33 170.852C319.983 169.048 320.578 167.206 321.115 165.365C321.269 164.852 320.962 164.339 320.463 164.188C319.944 164.036 319.426 164.339 319.273 164.833C318.755 166.637 318.16 168.44 317.526 170.206C317.354 170.7 317.603 171.25 318.102 171.421C318.217 171.459 318.313 171.478 318.428 171.478ZM144.161 164.89C144.238 164.89 144.334 164.871 144.411 164.852C144.929 164.719 145.217 164.188 145.082 163.694C144.583 161.89 144.142 160.049 143.758 158.207C143.643 157.694 143.144 157.372 142.626 157.467C142.108 157.581 141.782 158.074 141.878 158.587C142.261 160.466 142.722 162.346 143.24 164.188C143.355 164.624 143.739 164.89 144.161 164.89ZM321.806 159.612C322.247 159.612 322.65 159.308 322.746 158.853C323.149 156.992 323.475 155.074 323.763 153.176C323.84 152.663 323.475 152.17 322.957 152.094C322.439 152.018 321.94 152.378 321.863 152.891C321.595 154.752 321.269 156.612 320.885 158.435C320.77 158.947 321.115 159.46 321.633 159.555C321.691 159.612 321.748 159.612 321.806 159.612ZM141.705 152.796C141.743 152.796 141.782 152.796 141.839 152.796C142.357 152.72 142.741 152.245 142.664 151.733C142.415 149.872 142.242 147.993 142.108 146.113C142.069 145.582 141.628 145.202 141.091 145.221C140.553 145.259 140.17 145.714 140.189 146.227C140.323 148.145 140.515 150.062 140.764 151.961C140.822 152.454 141.225 152.796 141.705 152.796ZM323.514 147.385C324.013 147.385 324.435 147.005 324.473 146.493C324.608 144.594 324.684 142.658 324.704 140.74C324.704 140.209 324.281 139.791 323.744 139.791C323.207 139.791 322.785 140.209 322.785 140.74C322.765 142.62 322.689 144.518 322.573 146.379C322.535 146.911 322.938 147.347 323.456 147.385C323.475 147.385 323.495 147.385 323.514 147.385ZM140.937 140.493C141.455 140.493 141.897 140.076 141.897 139.544C141.916 137.664 141.973 135.766 142.108 133.905C142.146 133.374 141.743 132.937 141.225 132.899C140.707 132.861 140.246 133.26 140.208 133.772C140.074 135.671 139.997 137.608 139.997 139.525C139.978 140.057 140.4 140.474 140.937 140.493ZM323.552 135.044C323.571 135.044 323.591 135.044 323.61 135.044C324.147 135.006 324.531 134.551 324.512 134.038C324.377 132.121 324.205 130.203 323.955 128.304C323.878 127.792 323.399 127.412 322.881 127.488C322.362 127.564 321.979 128.039 322.055 128.551C322.305 130.412 322.478 132.291 322.612 134.171C322.631 134.665 323.053 135.044 323.552 135.044ZM141.858 128.172C142.338 128.172 142.741 127.83 142.799 127.355C143.067 125.495 143.394 123.634 143.777 121.792C143.893 121.28 143.547 120.767 143.029 120.672C142.511 120.558 141.993 120.9 141.897 121.413C141.513 123.273 141.168 125.191 140.899 127.089C140.822 127.602 141.187 128.096 141.705 128.172C141.762 128.172 141.801 128.172 141.858 128.172ZM321.883 122.818C321.94 122.818 322.017 122.818 322.075 122.799C322.593 122.685 322.938 122.191 322.823 121.678C322.439 119.799 321.979 117.919 321.48 116.078C321.345 115.565 320.808 115.28 320.309 115.413C319.791 115.546 319.503 116.078 319.637 116.571C320.136 118.375 320.578 120.217 320.962 122.058C321.038 122.514 321.441 122.818 321.883 122.818ZM144.449 116.116C144.871 116.116 145.255 115.85 145.37 115.432C145.888 113.629 146.483 111.825 147.116 110.059C147.289 109.566 147.04 109.015 146.541 108.844C146.042 108.673 145.485 108.92 145.313 109.414C144.66 111.217 144.065 113.059 143.528 114.901C143.374 115.413 143.681 115.926 144.18 116.078C144.276 116.097 144.372 116.116 144.449 116.116ZM318.563 110.933C318.678 110.933 318.774 110.914 318.889 110.876C319.388 110.705 319.657 110.154 319.484 109.66C318.831 107.857 318.121 106.053 317.373 104.288C317.162 103.813 316.605 103.585 316.106 103.794C315.607 104.003 315.396 104.553 315.607 105.047C316.356 106.775 317.047 108.54 317.68 110.306C317.795 110.686 318.16 110.933 318.563 110.933ZM148.69 104.515C149.055 104.515 149.419 104.307 149.573 103.946C150.34 102.237 151.166 100.528 152.029 98.8766C152.279 98.4019 152.087 97.8324 151.626 97.6045C151.166 97.3577 150.571 97.5476 150.34 98.0032C149.458 99.693 148.613 101.44 147.827 103.186C147.615 103.661 147.827 104.231 148.325 104.439C148.421 104.496 148.556 104.515 148.69 104.515ZM313.612 99.598C313.765 99.598 313.919 99.5601 314.053 99.4841C314.533 99.2373 314.705 98.6677 314.456 98.2121C313.573 96.5223 312.614 94.8136 311.616 93.1809C311.347 92.7252 310.752 92.5923 310.292 92.8581C309.831 93.1239 309.697 93.7125 309.965 94.1681C310.944 95.7819 311.865 97.4337 312.748 99.1044C312.921 99.4082 313.266 99.598 313.612 99.598ZM154.486 93.6175C154.812 93.6175 155.119 93.4656 155.311 93.1619C156.309 91.5671 157.364 89.9913 158.458 88.4534C158.765 88.0167 158.669 87.4282 158.228 87.1244C157.786 86.8206 157.191 86.9156 156.884 87.3522C155.771 88.9091 154.697 90.5229 153.68 92.1556C153.411 92.6113 153.545 93.1809 153.987 93.4656C154.14 93.5606 154.313 93.6175 154.486 93.6175ZM307.144 89.042C307.336 89.042 307.528 88.985 307.701 88.8711C308.142 88.5673 308.238 87.9788 307.931 87.5421C306.818 85.9853 305.648 84.4284 304.439 82.9286C304.112 82.5109 303.498 82.4539 303.095 82.7767C302.673 83.0994 302.616 83.707 302.942 84.1057C304.132 85.5676 305.283 87.0864 306.377 88.6053C306.55 88.8901 306.837 89.042 307.144 89.042ZM161.739 83.5741C162.008 83.5741 162.296 83.4602 162.488 83.2323C163.697 81.7894 164.944 80.3655 166.249 78.9985C166.614 78.6188 166.595 78.0113 166.211 77.6505C165.827 77.2898 165.213 77.3088 164.848 77.6885C163.524 79.0934 162.238 80.5364 161.01 82.0172C160.665 82.4159 160.742 83.0235 161.145 83.3462C161.317 83.5171 161.528 83.5741 161.739 83.5741ZM299.276 79.4542C299.507 79.4542 299.737 79.3782 299.929 79.2074C300.313 78.8466 300.332 78.2581 299.986 77.8594C298.662 76.4544 297.3 75.0874 295.899 73.7774C295.515 73.4167 294.901 73.4357 294.536 73.8154C294.172 74.1951 294.191 74.8027 294.575 75.1634C295.957 76.4544 297.3 77.8024 298.586 79.1694C298.758 79.3403 299.027 79.4542 299.276 79.4542ZM170.318 74.6128C170.548 74.6128 170.778 74.5369 170.97 74.366C172.352 73.0939 173.81 71.8599 175.269 70.6638C175.672 70.341 175.748 69.7335 175.403 69.3348C175.077 68.9361 174.463 68.8601 174.06 69.2019C172.563 70.417 171.085 71.689 169.665 72.98C169.281 73.3408 169.243 73.9293 169.608 74.328C169.799 74.4989 170.049 74.6128 170.318 74.6128ZM290.18 71.0055C290.449 71.0055 290.737 70.8916 290.929 70.6638C291.255 70.2651 291.197 69.6575 290.794 69.3348C289.297 68.1197 287.743 66.9426 286.169 65.8224C285.747 65.5186 285.133 65.6136 284.826 66.0312C284.519 66.4489 284.615 67.0565 285.037 67.3602C286.572 68.4424 288.089 69.6006 289.566 70.7967C289.758 70.9296 289.969 71.0055 290.18 71.0055ZM180.028 66.8666C180.22 66.8666 180.412 66.8097 180.584 66.6957C182.139 65.6136 183.751 64.5883 185.363 63.6011C185.823 63.3353 185.958 62.7467 185.689 62.2911C185.42 61.8354 184.825 61.7025 184.365 61.9683C182.715 62.9556 181.083 64.0188 179.491 65.1199C179.049 65.4237 178.953 66.0123 179.26 66.4489C179.433 66.7147 179.721 66.8666 180.028 66.8666ZM280.029 63.8669C280.355 63.8669 280.662 63.715 280.854 63.4112C281.122 62.9556 280.988 62.386 280.528 62.1012C278.877 61.095 277.188 60.1457 275.48 59.2533C275.02 59.0065 274.425 59.1774 274.176 59.652C273.926 60.1077 274.099 60.6963 274.579 60.9431C276.248 61.8164 277.918 62.7467 279.53 63.734C279.683 63.8099 279.856 63.8669 280.029 63.8669ZM190.717 60.4874C190.87 60.4874 191.005 60.4494 191.158 60.3735C192.847 59.5191 194.574 58.7027 196.32 57.9623C196.8 57.7535 197.03 57.2029 196.819 56.7093C196.608 56.2346 196.052 56.0068 195.553 56.2156C193.787 56.975 192.003 57.8104 190.275 58.6838C189.796 58.9306 189.623 59.5002 189.853 59.9558C190.026 60.2976 190.371 60.4874 190.717 60.4874ZM268.975 58.1522C269.34 58.1522 269.704 57.9433 269.858 57.5826C270.069 57.1079 269.858 56.5384 269.359 56.3295C267.593 55.5701 265.77 54.8487 263.966 54.1841C263.467 54.0133 262.911 54.2601 262.738 54.7537C262.565 55.2474 262.815 55.7979 263.314 55.9688C265.079 56.6143 266.864 57.3168 268.591 58.0572C268.725 58.1332 268.841 58.1522 268.975 58.1522ZM202.193 55.6271C202.289 55.6271 202.404 55.6081 202.5 55.5701C204.284 54.9436 206.107 54.393 207.931 53.8804C208.449 53.7475 208.737 53.2159 208.602 52.7033C208.468 52.1906 207.931 51.9059 207.412 52.0388C205.551 52.5514 203.69 53.1399 201.866 53.7665C201.367 53.9373 201.099 54.4879 201.272 54.9815C201.425 55.3802 201.79 55.6271 202.193 55.6271ZM257.25 53.9943C257.672 53.9943 258.056 53.7285 258.171 53.3108C258.324 52.7982 258.017 52.2856 257.499 52.1337C255.638 51.6211 253.738 51.1464 251.857 50.7477C251.339 50.6338 250.821 50.9566 250.725 51.4692C250.61 51.9818 250.936 52.4944 251.454 52.5893C253.296 52.988 255.158 53.4437 256.981 53.9563C257.077 53.9753 257.154 53.9943 257.25 53.9943ZM214.225 52.3805C214.283 52.3805 214.359 52.3805 214.417 52.3615C216.278 52.0008 218.159 51.678 220.04 51.4312C220.558 51.3553 220.942 50.8806 220.865 50.368C220.788 49.8554 220.308 49.4947 219.79 49.5516C217.871 49.8174 215.952 50.1402 214.052 50.5009C213.534 50.5958 213.189 51.1085 213.304 51.6211C213.381 52.0577 213.764 52.3805 214.225 52.3805ZM245.045 51.4692C245.524 51.4692 245.927 51.1274 245.985 50.6528C246.062 50.1402 245.697 49.6466 245.16 49.5896C243.241 49.3238 241.303 49.115 239.383 48.9821C238.846 48.9441 238.386 49.3428 238.347 49.8554C238.309 50.387 238.712 50.8427 239.23 50.8806C241.111 51.0135 243.03 51.2224 244.891 51.4882C244.949 51.4502 245.006 51.4692 245.045 51.4692ZM226.584 50.7667C226.603 50.7667 226.622 50.7667 226.641 50.7667C228.522 50.6528 230.441 50.5958 232.341 50.5958H232.609C233.147 50.5958 233.569 50.1782 233.569 49.6466C233.569 49.115 233.147 48.6973 232.609 48.6973H232.341C230.402 48.6973 228.445 48.7542 226.526 48.8681C225.989 48.9061 225.586 49.3428 225.624 49.8744C225.662 50.387 226.085 50.7667 226.584 50.7667Z" fill="white"/>
<path d="M232.341 66.1438C233.128 66.1438 233.78 65.4983 233.78 64.7199V49.6642C233.78 48.8857 233.128 48.2402 232.341 48.2402C231.554 48.2402 230.902 48.8857 230.902 49.6642V64.7199C230.902 65.4983 231.554 66.1438 232.341 66.1438Z" fill="white"/>
<path d="M232.341 231.926C233.128 231.926 233.78 231.281 233.78 230.503V215.428C233.78 214.649 233.128 214.004 232.341 214.004C231.554 214.004 230.902 214.649 230.902 215.428V230.503C230.902 231.281 231.554 231.926 232.341 231.926Z" fill="white"/>
<path d="M286.208 88.224C286.573 88.224 286.937 88.0911 287.225 87.8064L297.991 77.1364C298.547 76.5858 298.547 75.6745 297.991 75.1239C297.434 74.5733 296.513 74.5733 295.957 75.1239L285.191 85.7939C284.634 86.3445 284.634 87.2558 285.191 87.8064C285.479 88.0911 285.843 88.224 286.208 88.224Z" fill="white"/>
<path d="M167.727 205.441C168.092 205.441 168.456 205.308 168.744 205.024L179.51 194.373C180.066 193.822 180.066 192.911 179.51 192.36C178.953 191.81 178.032 191.81 177.476 192.36L166.71 203.011C166.153 203.562 166.153 204.473 166.71 205.024C166.998 205.308 167.362 205.441 167.727 205.441Z" fill="white"/>
<path d="M308.507 141.498H323.744C324.531 141.498 325.184 140.853 325.184 140.074C325.184 139.296 324.531 138.65 323.744 138.65H308.507C307.72 138.65 307.068 139.296 307.068 140.074C307.068 140.853 307.72 141.498 308.507 141.498Z" fill="white"/>
<path d="M140.957 141.498H156.174C156.961 141.498 157.614 140.853 157.614 140.074C157.614 139.296 156.961 138.65 156.174 138.65H140.957C140.17 138.65 139.517 139.296 139.517 140.074C139.517 140.853 140.17 141.498 140.957 141.498Z" fill="white"/>
<path d="M296.974 205.441C297.338 205.441 297.703 205.308 297.991 205.024C298.547 204.473 298.547 203.562 297.991 203.011L287.225 192.36C286.669 191.81 285.747 191.81 285.191 192.36C284.634 192.911 284.634 193.822 285.191 194.373L295.957 205.024C296.245 205.308 296.609 205.441 296.974 205.441Z" fill="white"/>
<path d="M178.493 88.224C178.857 88.224 179.222 88.0911 179.51 87.8064C180.066 87.2558 180.066 86.3445 179.51 85.7939L168.744 75.1239C168.188 74.5733 167.266 74.5733 166.71 75.1239C166.153 75.6745 166.153 76.5858 166.71 77.1364L177.476 87.8064C177.764 88.0911 178.128 88.224 178.493 88.224Z" fill="white"/>
<path d="M232.341 236.201C245.448 236.201 258.171 233.657 270.165 228.645C281.737 223.804 292.119 216.874 301.042 208.046C309.966 199.217 316.97 188.946 321.864 177.497C326.93 165.65 329.501 153.063 329.501 140.077C329.501 113.44 319.062 88.9859 300.275 72.1076L292.541 80.5373C300.543 87.7329 306.435 95.6309 311.002 106.225C315.588 116.876 318.006 128.571 318.006 140.058C318.006 151.506 315.742 162.594 311.271 173.036C306.953 183.117 300.774 192.192 292.906 199.977C285.038 207.761 275.884 213.874 265.675 218.127C255.12 222.551 243.913 224.791 232.341 224.791C220.769 224.791 209.562 222.551 199.007 218.127C188.817 213.855 179.644 207.742 171.776 199.977C163.908 192.192 157.729 183.136 153.411 173.036C148.94 162.594 146.675 151.506 146.675 140.058C146.675 128.666 149.017 117.597 153.641 107.136C158.094 97.0739 164.465 87.9987 172.563 80.1955C180.642 72.4114 190.007 66.279 200.408 61.9882C211.136 57.5645 220.731 55.7039 232.303 55.7039V44.3125C219.196 44.3125 208.104 46.4769 195.975 51.4701C184.231 56.3115 173.657 63.2223 164.522 72.0317C155.349 80.879 148.134 91.1503 143.087 102.561C137.829 114.465 135.142 127.071 135.142 140.039C135.142 153.006 137.714 165.593 142.78 177.459C147.673 188.908 154.678 199.179 163.601 208.008C172.525 216.836 182.907 223.766 194.478 228.607C206.511 233.657 219.234 236.201 232.341 236.201Z" fill="#D0F0E4"/>
<path d="M232.341 237.625C245.64 237.625 258.555 235.042 270.722 229.954C282.447 225.037 293.002 218.012 302.059 209.051C311.117 200.09 318.218 189.667 323.188 178.047C328.331 166.01 330.941 153.252 330.941 140.076C330.941 126.615 328.35 113.762 323.265 101.876C318.141 89.9535 310.734 79.5872 301.253 71.0626C300.966 70.8158 300.601 70.6829 300.217 70.7019C299.833 70.7209 299.469 70.8918 299.219 71.1766L291.486 79.6062C290.948 80.1948 290.987 81.0871 291.582 81.6187C299.757 88.9662 305.341 96.7503 309.678 106.813C314.188 117.274 316.567 128.779 316.567 140.095C316.567 151.353 314.341 162.251 309.947 172.522C305.686 182.452 299.622 191.356 291.889 199.008C284.136 206.678 275.135 212.677 265.118 216.854C254.736 221.202 243.721 223.404 232.341 223.404C220.961 223.404 209.946 221.202 199.564 216.854C189.547 212.658 180.527 206.64 172.794 199.008C165.06 191.356 158.977 182.433 154.735 172.522C150.341 162.251 148.115 151.353 148.115 140.095C148.115 128.912 150.418 118.014 154.966 107.743C159.341 97.8325 165.616 88.9282 173.58 81.258C181.544 73.5877 190.756 67.5503 200.984 63.3354C211.481 59.0067 220.846 57.1651 232.322 57.1651C233.109 57.1651 233.761 56.5196 233.761 55.7412V44.3497C233.761 43.5713 233.109 42.9258 232.322 42.9258C219.023 42.9258 207.643 45.1661 195.438 50.1973C183.521 55.1146 172.794 62.1204 163.525 71.0626C154.217 80.0429 146.887 90.4661 141.782 102.047C136.428 114.16 133.722 126.957 133.722 140.095C133.722 153.252 136.332 166.029 141.475 178.066C146.445 189.667 153.546 200.109 162.603 209.07C171.661 218.031 182.197 225.056 193.941 229.973C206.108 235.023 219.023 237.625 232.341 237.625ZM300.371 74.1194C309.045 82.1883 315.857 91.89 320.617 102.978C325.568 114.502 328.062 126.976 328.062 140.057C328.062 152.853 325.529 165.251 320.54 176.927C315.723 188.205 308.814 198.324 300.025 207.02C291.236 215.715 280.989 222.55 269.609 227.315C257.787 232.252 245.256 234.758 232.341 234.758C219.426 234.758 206.876 232.233 195.035 227.277C183.636 222.512 173.408 215.677 164.618 206.982C155.829 198.286 148.921 188.148 144.104 176.889C139.115 165.194 136.581 152.796 136.581 140.019C136.581 127.279 139.21 114.863 144.411 103.111C149.381 91.871 156.482 81.7516 165.54 73.0372C174.54 64.3607 184.96 57.5448 196.532 52.7794C207.931 48.0899 218.582 45.9066 230.863 45.7357V54.2793C219.637 54.4311 210.272 56.3677 199.852 60.6585C189.297 65.0062 179.779 71.2335 171.565 79.1506C163.333 87.0866 156.866 96.2947 152.337 106.547C147.635 117.179 145.255 128.457 145.255 140.038C145.255 151.676 147.558 162.954 152.106 173.567C156.482 183.819 162.776 193.046 170.779 200.963C178.781 208.861 188.088 215.069 198.47 219.417C209.198 223.917 220.597 226.195 232.36 226.195C244.124 226.195 255.523 223.917 266.25 219.417C276.594 215.107 285.92 208.899 293.942 200.963C301.925 193.065 308.22 183.838 312.614 173.567C317.162 162.954 319.465 151.676 319.465 140.038C319.465 128.362 317.009 116.458 312.346 105.655C308.028 95.6302 302.52 87.8081 294.594 80.4416L300.371 74.1194Z" fill="white"/>
<path d="M219.925 153.669C220.097 153.669 220.27 153.593 220.404 153.46L280.72 92.2498C280.969 91.984 280.969 91.5663 280.7 91.3195C280.432 91.0727 280.009 91.0727 279.76 91.3385L219.445 152.549C219.195 152.814 219.195 153.232 219.464 153.479C219.579 153.612 219.752 153.669 219.925 153.669Z" fill="#FE5244"/>
<path d="M231.688 145.43C229.049 145.43 226.91 143.313 226.91 140.702C226.91 138.091 229.049 135.975 231.688 135.975C234.327 135.975 236.467 138.091 236.467 140.702C236.467 143.313 234.327 145.43 231.688 145.43Z" fill="#D0F0E4"/>
<path d="M231.689 146.854C235.124 146.854 237.906 144.101 237.906 140.702C237.906 137.304 235.124 134.551 231.689 134.551C228.253 134.551 225.471 137.304 225.471 140.702C225.471 144.101 228.253 146.854 231.689 146.854ZM231.689 137.399C233.531 137.399 235.028 138.88 235.028 140.702C235.028 142.525 233.531 144.006 231.689 144.006C229.846 144.006 228.349 142.525 228.349 140.702C228.349 138.88 229.846 137.399 231.689 137.399Z" fill="white"/>
<path d="M192.732 45.7539C192.943 45.7539 193.173 45.6969 193.365 45.602C194.075 45.2602 194.363 44.4059 194.018 43.6844L191.101 37.8938C190.698 37.0394 190.698 36.0521 191.082 35.1978C191.465 34.3434 192.214 33.6979 193.116 33.4131L199.142 31.6095C200.063 31.3247 201.041 31.4576 201.847 31.9702C202.653 32.4638 203.191 33.2992 203.325 34.2295L204.189 40.3049C204.304 41.0834 205.033 41.634 205.82 41.52C206.606 41.4061 207.163 40.6847 207.048 39.9063L206.184 33.8118C205.916 32.0462 204.899 30.5083 203.383 29.559C201.866 28.6097 200.024 28.3629 198.316 28.8945L192.291 30.6982C190.583 31.2108 189.182 32.4259 188.452 34.0397C187.723 35.6534 187.742 37.514 188.51 39.1088L188.529 39.1278L191.446 44.9375C191.696 45.4691 192.195 45.7539 192.732 45.7539Z" fill="white"/>
<path d="M22.851 545.972H24.0342V301.911H352.999V545.972H354.183V300.771H22.851V545.972Z" fill="#66B0F0"/>
<path d="M19.326 309.525H358.618C366.279 309.525 372.5 305.177 372.5 299.823V262.858C372.5 257.504 366.279 253.156 358.618 253.156H19.326C11.6649 253.156 5.44352 257.504 5.44352 262.858V299.823C5.44352 305.177 11.6649 309.525 19.326 309.525Z" fill="white"/>
<path d="M19.3261 310.094H358.618C366.714 310.094 373.315 305.48 373.315 299.822V262.857C373.315 257.199 366.714 252.586 358.618 252.586H19.3261C11.2302 252.586 4.62855 257.199 4.62855 262.857V299.822C4.62855 305.48 11.2302 310.094 19.3261 310.094ZM358.618 253.725C365.817 253.725 371.685 257.826 371.685 262.857V299.822C371.685 304.854 365.817 308.955 358.618 308.955H19.3261C12.1267 308.955 6.25858 304.854 6.25858 299.822V262.857C6.25858 257.826 12.1267 253.725 19.3261 253.725H358.618Z" fill="#66B0F0"/>
<path d="M18.5038 302.912H359.433C367.094 302.912 373.315 298.56 373.315 293.2V256.198C373.315 250.838 367.094 246.486 359.433 246.486H18.5038C10.8424 246.486 4.62099 250.838 4.62099 256.198V293.2C4.62099 298.56 10.8424 302.912 18.5038 302.912Z" fill="#66B0F0"/>
<path d="M84.7329 252.488H170.61V291.506H84.7329V252.488Z" fill="white"/>
<path d="M26.8896 256.706H115.453L115.376 246.491H168.725L184.25 201.495L200.869 231.778L153.949 271.382L176.382 301.455L231.804 266.313C241.84 259.838 247.885 248.808 247.885 236.961C247.885 231.037 246.369 225.189 243.452 220.006L217.584 173.719C206.722 154.297 186.073 142.26 163.659 142.26H80.5841C66.7671 142.26 53.8136 148.905 45.8496 160.068L5.56912 215.545C-6.96216 232.727 5.47318 256.706 26.8896 256.706Z" fill="white"/>
<path d="M176.248 302.214L232.13 266.786C242.358 260.179 248.48 249.035 248.48 236.96C248.48 230.922 246.926 224.961 243.97 219.721L218.102 173.434C207.144 153.84 186.284 141.689 163.678 141.689H80.6031C66.6134 141.689 53.468 148.429 45.3889 159.745L5.10848 215.202C2.07641 219.36 0.31092 224.201 0.0422561 229.176C-0.226408 233.846 0.790659 238.555 2.99755 242.807C5.18524 247.06 8.46679 250.63 12.4584 253.155C16.7186 255.851 21.7081 257.275 26.9087 257.275H116.028L115.952 247.06H169.128L169.262 246.681L184.365 202.918L200.14 231.663L153.162 271.305L176.248 302.214ZM163.659 142.829C185.862 142.829 206.338 154.771 217.085 174.003L242.953 220.29C245.813 225.36 247.309 231.131 247.309 236.96C247.309 248.655 241.399 259.439 231.497 265.837L176.536 300.695L154.735 271.476L201.598 231.91L184.135 200.09L168.322 245.921H114.8L114.877 256.135H26.8895C21.9 256.135 17.1216 254.768 13.0532 252.205C9.23438 249.794 6.08718 246.358 3.99543 242.295C1.90369 238.232 0.924992 233.732 1.17447 229.252C1.44313 224.505 3.13189 219.873 6.02962 215.886L46.3101 160.409C54.1589 149.398 66.978 142.829 80.584 142.829H163.659Z" fill="#FE5244"/>
<path d="M158.189 291.088C164.753 299.821 172.832 304.834 176.267 302.309C179.702 299.784 177.169 290.67 170.625 281.937C164.062 273.203 156.75 268.571 153.315 271.096C149.88 273.621 151.646 282.374 158.189 291.088Z" fill="#FE5244"/>
<path d="M129.903 179.775L157.633 141.766H104.323L129.903 179.775ZM155.369 142.905L129.942 177.763L106.472 142.905H155.369Z" fill="#FE5244"/>
<path d="M129.634 192.61C131.477 192.61 132.993 191.11 132.993 189.287C132.993 187.465 131.477 185.965 129.634 185.965C127.792 185.965 126.276 187.465 126.276 189.287C126.276 191.11 127.792 192.61 129.634 192.61ZM129.634 187.104C130.843 187.104 131.841 188.091 131.841 189.287C131.841 190.483 130.843 191.471 129.634 191.471C128.425 191.471 127.427 190.483 127.427 189.287C127.427 188.091 128.425 187.104 129.634 187.104Z" fill="#FE5244"/>
<path d="M129.634 210.077C131.477 210.077 132.993 208.577 132.993 206.754C132.993 204.932 131.477 203.432 129.634 203.432C127.792 203.432 126.276 204.932 126.276 206.754C126.276 208.577 127.792 210.077 129.634 210.077ZM129.634 204.571C130.843 204.571 131.841 205.558 131.841 206.754C131.841 207.95 130.843 208.937 129.634 208.937C128.425 208.937 127.427 207.95 127.427 206.754C127.427 205.558 128.425 204.571 129.634 204.571Z" fill="#FE5244"/>
<path d="M114.129 257.37H115.28V218.07H62.411L74.52 199.483L73.5605 198.875L60.3 219.209H114.129V257.37Z" fill="#FE5244"/>
<path d="M47.3657 218.068H61.3555V219.207H47.3657V218.068Z" fill="#FE5244"/>
<path d="M114.704 257.369C110.422 257.369 106.951 248.554 106.951 237.68C106.951 226.807 110.422 217.992 114.704 217.992C118.986 217.992 122.457 226.807 122.457 237.68C122.457 248.554 118.986 257.369 114.704 257.369Z" fill="#FE5244"/>
<path d="M107.028 257.236V256.096C103.133 256.096 99.851 247.667 99.851 237.68C99.851 227.694 103.133 219.264 107.028 219.264V218.125C102.365 218.125 98.6996 226.707 98.6996 237.68C98.6996 248.654 102.365 257.236 107.028 257.236Z" fill="#FE5244"/>
<path d="M182.581 298.228C186.323 295.475 183.886 286.191 177.054 277.059C173.753 272.673 170.376 269.294 167.267 267.281C163.947 265.136 161.203 264.718 159.322 266.104L160.013 267.015C163.064 264.775 169.704 269.18 176.133 277.742C182.37 286.058 184.999 295.019 181.89 297.316L182.581 298.228Z" fill="#FE5244"/>
<path d="M156.309 126.596C156.175 107.876 143.605 102.75 122.956 104.382C100.695 106.148 109.811 136.449 97.4521 137.456C92.2707 137.873 86.3601 132.064 78.4921 127.279C72.0057 122.95 64.1953 120.425 55.7707 120.425C33.2989 120.425 15.0681 138.462 15.0681 160.694C15.0681 170.927 19.8849 180.819 26.2369 187.92C26.2369 187.92 50.2439 154.562 59.5512 151.429C77.8588 145.278 83.6735 161.188 96.3775 163.656C98.0471 163.979 99.8317 164.074 101.789 163.846C119.866 161.795 116.412 132.31 116.412 132.31C121.095 130.412 122.112 125.608 122.284 122.704C122.188 121.299 122.246 120.368 122.246 120.368C122.246 120.368 122.361 121.318 122.284 122.704C122.668 128.172 126.046 141.253 144.871 136.563V142.923C144.871 181.446 144.238 188.926 152.125 198.609C153.296 200.052 161.126 211.69 147.097 217.974C129.02 226.062 141.782 247.345 141.782 247.345H180.028C180.028 247.345 202.73 243.358 204.707 222.967C207.528 193.824 170.586 186.021 165.77 185.129C175.135 183.705 184.288 174.573 184.288 163.504C184.288 153.688 176.67 145.392 168.84 142.658C168.821 142.658 168.821 142.658 168.802 142.639C168.571 142.563 168.341 142.487 168.111 142.411C161.989 140.322 157.479 135.728 156.482 130.165L156.309 126.596Z" fill="#FFCF2D"/>
<path d="M122.189 126.805C122.208 126.805 122.208 126.805 122.189 126.805C122.457 126.805 122.668 126.577 122.668 126.331L122.515 116.629C122.515 116.363 122.304 116.154 122.035 116.154C121.766 116.154 121.555 116.382 121.555 116.629L121.709 126.331C121.728 126.596 121.939 126.805 122.189 126.805Z" fill="#E57281"/>
<path d="M144.027 137.855C144.104 137.855 144.181 137.836 144.257 137.798C148.901 135.387 149.88 132.919 149.938 132.824C150.034 132.577 149.899 132.311 149.65 132.217C149.4 132.122 149.132 132.255 149.036 132.482C149.017 132.52 148.076 134.742 143.816 136.963C143.586 137.077 143.49 137.381 143.605 137.609C143.682 137.76 143.854 137.855 144.027 137.855Z" fill="#E57281"/>
<path d="M79.5667 121.356C76.3871 121.356 73.8096 118.806 73.8096 115.661C73.8096 112.515 76.3871 109.965 79.5667 109.965C82.7462 109.965 85.3237 112.515 85.3237 115.661C85.3237 118.806 82.7462 121.356 79.5667 121.356Z" fill="#FFCF2D"/>
<path d="M147.328 211.425C144.774 211.425 142.703 209.376 142.703 206.849C142.703 204.322 144.774 202.273 147.328 202.273C149.882 202.273 151.953 204.322 151.953 206.849C151.953 209.376 149.882 211.425 147.328 211.425Z" fill="#FFCF2D"/>
<path d="M118.197 275.71L118.216 279.165C118.216 279.469 118.292 279.773 118.408 280.039L126.813 298.569C128.06 301.246 130.766 302.955 133.741 302.955H151.722C156.213 302.955 160.569 301.455 164.1 298.721L164.733 298.227L175.441 289.892C174.252 287.348 172.62 284.633 170.605 281.956C166.767 276.83 162.373 272.995 158.727 271.191H132.916C130.862 275.729 137.54 279.374 137.54 279.374H125.873L121.651 274.837C120.557 273.66 118.58 274.172 118.197 275.71Z" fill="#E57281"/>
<path d="M131.764 297.791H146.905C147.174 297.791 147.385 297.582 147.385 297.316C147.385 297.05 147.174 296.841 146.905 296.841H131.764C128.982 296.841 126.43 295.228 125.278 292.741C125.163 292.494 124.875 292.399 124.645 292.513C124.395 292.627 124.299 292.911 124.415 293.139C125.719 295.968 128.617 297.791 131.764 297.791Z" fill="#9A3B82"/>
<path d="M129.116 291.924H144.258C144.526 291.924 144.737 291.715 144.737 291.449C144.737 291.183 144.526 290.974 144.258 290.974H129.116C126.334 290.974 123.782 289.36 122.63 286.873C122.515 286.626 122.227 286.532 121.997 286.645C121.747 286.759 121.651 287.044 121.767 287.272C123.072 290.101 125.969 291.924 129.116 291.924Z" fill="#9A3B82"/>
<path d="M126.257 285.392H141.398C141.667 285.392 141.878 285.183 141.878 284.918C141.878 284.652 141.667 284.443 141.398 284.443H126.257C123.474 284.443 120.922 282.829 119.771 280.342C119.656 280.095 119.368 280 119.137 280.114C118.888 280.228 118.792 280.513 118.907 280.741C120.212 283.57 123.11 285.392 126.257 285.392Z" fill="#9A3B82"/>
<path d="M158.382 290.708C160.089 293.461 162.603 296.328 164.734 298.227L164.753 298.208L175.461 289.873C174.271 287.329 172.64 284.614 170.625 281.937C166.787 276.811 162.392 272.976 158.746 271.172H153.2C152.701 275.482 153.43 282.734 158.382 290.708Z" fill="#9A3B82"/>
<path d="M139.978 232.138C139.978 232.138 130.652 207.514 127.044 208.007C123.455 208.482 135.085 230.316 135.085 230.316L139.978 232.138Z" fill="#FE5244"/>
<path d="M106.951 237.683C106.951 248.22 110.214 256.802 114.301 257.333C114.435 257.352 114.57 257.352 114.704 257.352H152.701C153.852 257.352 154.773 256.441 154.773 255.302V243.303C154.773 239.904 152.663 236.867 149.458 235.671L133.549 229.709C132.11 229.177 130.574 228.893 129.039 228.893H107.776C107.258 231.551 106.951 234.531 106.951 237.683Z" fill="#E57281"/>
<path d="M154.102 249.056C154.37 249.056 154.582 248.847 154.582 248.581C154.582 245.847 152.854 243.36 150.264 242.392L138.251 237.892C138.001 237.797 137.733 237.93 137.637 238.177C137.541 238.424 137.675 238.69 137.924 238.784L149.938 243.284C152.144 244.119 153.641 246.246 153.641 248.6C153.622 248.847 153.833 249.056 154.102 249.056Z" fill="#9A3B82"/>
<path d="M154.102 256.231C154.37 256.231 154.582 256.023 154.582 255.757C154.582 253.023 152.854 250.536 150.264 249.568L138.251 245.068C138.001 244.973 137.733 245.106 137.637 245.353C137.541 245.599 137.675 245.865 137.924 245.96L149.938 250.46C152.144 251.295 153.641 253.422 153.641 255.776C153.622 256.023 153.833 256.231 154.102 256.231Z" fill="#9A3B82"/>
<path d="M150.744 257.18C150.936 257.18 151.128 257.066 151.185 256.876C151.281 256.629 151.147 256.364 150.897 256.269L138.884 251.769C138.635 251.674 138.366 251.807 138.27 252.054C138.174 252.301 138.309 252.566 138.558 252.661L150.571 257.161C150.629 257.161 150.686 257.18 150.744 257.18Z" fill="#9A3B82"/>
<path d="M106.951 237.682C106.951 248.22 110.214 256.801 114.301 257.333C114.435 257.352 114.57 257.352 114.704 257.352C118.984 257.352 122.457 248.542 122.457 237.663C122.457 234.759 122.016 231.455 121.555 228.873H107.872C107.393 231.474 106.951 234.778 106.951 237.682Z" fill="#9A3B82"/>
<path d="M110.137 136.545C110.137 137.646 110.521 138.691 111.154 139.507C111.806 140.342 112.708 140.95 113.802 141.235L116.45 141.918V144.842C116.45 151.905 122.227 157.619 129.366 157.619H131.918C139.038 157.619 144.795 151.924 144.833 144.899V136.545C126.007 141.254 122.63 128.153 122.246 122.686C122.092 125.457 121.152 129.938 117.007 132.008L116.278 131.818C113.169 131.058 110.137 133.375 110.137 136.545Z" fill="#E57281"/>
<path d="M119.963 140.911C120.078 140.911 120.193 140.873 120.27 140.797C122.362 139.031 126.046 139.373 126.085 139.373C126.353 139.392 126.583 139.202 126.603 138.955C126.622 138.689 126.43 138.462 126.18 138.443C126.008 138.424 122.035 138.063 119.637 140.094C119.445 140.265 119.406 140.569 119.579 140.759C119.694 140.854 119.828 140.911 119.963 140.911Z" fill="#9A3B82"/>
<path d="M132.014 151.563C132.283 151.563 132.494 151.354 132.494 151.088C132.532 145.468 133.741 141.026 135.43 140.285C138.405 138.994 141.091 140.38 141.11 140.399C141.341 140.532 141.628 140.437 141.763 140.209C141.897 139.981 141.801 139.697 141.571 139.564C141.437 139.488 138.443 137.931 135.046 139.412C132.916 140.342 131.573 144.804 131.534 151.088C131.534 151.354 131.745 151.563 132.014 151.563Z" fill="#9A3B82"/>
<path d="M137.656 145.772C137.242 145.772 136.907 145.134 136.907 144.348C136.907 143.561 137.242 142.924 137.656 142.924C138.069 142.924 138.404 143.561 138.404 144.348C138.404 145.134 138.069 145.772 137.656 145.772Z" fill="#9A3B82"/>
<path d="M123.724 145.772C123.31 145.772 122.975 145.134 122.975 144.348C122.975 143.561 123.31 142.924 123.724 142.924C124.137 142.924 124.472 143.561 124.472 144.348C124.472 145.134 124.137 145.772 123.724 145.772Z" fill="#9A3B82"/>
<path d="M115.721 138.861C115.99 138.861 116.201 138.652 116.201 138.386C116.201 136.525 114.858 134.893 113.016 134.513C112.766 134.456 112.497 134.627 112.44 134.874C112.382 135.139 112.555 135.386 112.804 135.443C114.205 135.728 115.222 136.981 115.222 138.405C115.242 138.652 115.453 138.861 115.721 138.861Z" fill="#9A3B82"/>
<path d="M321.307 430.303C319.023 435.619 319.695 446.554 331.19 446.402C345.448 446.213 345.084 408.203 345.084 408.203C345.084 408.203 330.518 408.868 321.307 430.303Z" fill="#3FB1B5"/>
<path d="M454.104 417.448C457.673 424.928 452.876 430.947 448.846 428.877C441.803 425.251 438.771 415.929 438.771 415.929C438.771 415.929 450.899 410.765 454.104 417.448Z" fill="#3FB1B5"/>
<path d="M321.499 430.301C329.137 415.169 337.753 407.973 351.551 407.973C374.791 407.973 389.701 432.579 392.542 464.399C392.887 460.45 397.013 456.406 397.32 452.305C401.465 397.816 371.279 376.324 348.634 376.324C330.096 376.305 325.471 402.657 321.499 430.301Z" fill="white"/>
<path d="M391.966 464.457H393.117C393.271 462.634 394.307 460.773 395.401 458.78C396.552 456.71 397.742 454.546 397.895 452.344C400.429 418.986 390.066 400.361 380.931 390.602C372.084 381.166 360.302 375.736 348.634 375.736H348.615C339.979 375.736 333.589 381.28 329.079 392.71C325.087 402.81 322.957 416.214 320.942 430.206L320.443 433.681L322.036 430.548C325.989 422.707 329.981 417.429 334.587 413.898C339.327 410.29 344.873 408.525 351.57 408.525C362.432 408.525 372.008 414.069 379.242 424.549C386.132 434.592 390.526 448.376 391.966 464.457ZM348.615 376.894H348.634C359.995 376.894 371.451 382.172 380.087 391.381C389.068 400.968 399.258 419.29 396.744 452.249C396.59 454.204 395.477 456.255 394.384 458.229C393.827 459.236 393.251 460.28 392.81 461.324C391.102 446.344 386.746 433.472 380.183 423.941C372.718 413.119 362.835 407.405 351.57 407.405C344.604 407.405 338.828 409.246 333.877 413.005C329.731 416.157 326.104 420.676 322.554 427.074C324.416 414.353 326.507 402.335 330.154 393.146C332.245 387.849 334.663 383.957 337.542 381.28C340.689 378.337 344.316 376.894 348.615 376.894Z" fill="#3FB1B5"/>
<path d="M397.876 465.198C400.39 432.239 389.855 413.519 380.567 403.627C371.758 394.229 359.956 388.609 348.999 388.609C337.235 388.609 329.77 395.349 324.051 411.126L325.126 411.506C330.672 396.261 337.811 389.749 348.999 389.749C359.63 389.749 371.125 395.235 379.722 404.405C388.857 414.145 399.2 432.58 396.725 465.122L397.876 465.198Z" fill="#3FB1B5"/>
<path d="M484.252 353.332C490.45 359.407 501.658 384.317 487.783 389.253C473.908 394.208 457.654 345.434 457.654 345.434C457.654 345.434 469.418 338.77 484.252 353.332Z" fill="#FFCF2D"/>
<path d="M485.749 390.185C486.497 390.185 487.246 390.052 487.975 389.805C491.525 388.533 493.751 385.97 494.615 382.154C496.783 372.414 489.299 357.51 484.655 352.954C480.356 348.739 473.524 343.632 465.407 343.385C460.513 343.233 457.501 344.904 457.366 344.98L456.963 345.207L457.117 345.644C457.155 345.739 460.302 355.137 464.927 365.142C471.183 378.66 477.017 386.805 482.294 389.349C483.465 389.881 484.636 390.185 485.749 390.185ZM464.774 344.486C464.985 344.486 465.215 344.486 465.445 344.505C473.16 344.79 479.704 349.688 483.849 353.751C488.435 358.251 495.517 372.889 493.502 381.907C492.734 385.324 490.757 387.622 487.591 388.742C486.075 389.292 484.501 389.14 482.793 388.324C471.49 382.875 459.861 350.087 458.364 345.758C459.266 345.321 461.55 344.486 464.774 344.486Z" fill="#FFCF2D"/>
<path d="M369.859 466.508L374.81 493.069C377.304 506.397 389.049 516.08 402.751 516.08C416.453 516.08 428.197 506.397 430.692 493.069L435.643 466.508C435.643 465.179 435.336 463.907 434.799 462.768C430.826 466.717 417.911 469.602 402.617 469.602C387.533 469.602 374.791 466.793 370.607 462.957C370.127 464.04 369.859 465.255 369.859 466.508Z" fill="#D0F0E4"/>
<path d="M373.102 460.204C373.102 463.963 386.324 467.001 402.636 467.001C418.947 467.001 432.169 463.963 432.169 460.204C432.169 459.9 432.093 459.615 431.92 459.33C430.039 455.989 417.642 453.426 402.636 453.426C387.168 453.426 374.483 456.16 373.217 459.634C373.14 459.824 373.102 460.014 373.102 460.204Z" fill="#66B0F0"/>
<path d="M392.042 420.581C392.042 436.301 394.23 451.148 398.126 464.21H409.333C409.371 398.197 433.705 344.714 463.699 344.714C471.49 344.714 478.898 348.321 485.595 354.814C465.868 331.974 457.673 325.709 446.409 325.709C419.504 325.709 392.042 368.18 392.042 420.581Z" fill="white"/>
<path d="M397.704 464.78H409.909V464.211C409.947 398.634 434.069 345.284 463.699 345.284C471.164 345.284 478.399 348.625 485.192 355.213L486.037 354.435C465.925 331.159 457.788 325.121 446.409 325.121C433.033 325.121 419.274 335.354 408.642 353.182C403.346 362.067 399.162 372.263 396.207 383.483C393.06 395.387 391.486 407.861 391.486 420.562C391.486 435.808 393.597 450.959 397.588 464.344L397.704 464.78ZM408.757 463.641H398.548C394.672 450.446 392.618 435.58 392.618 420.581C392.618 407.975 394.192 395.596 397.32 383.787C400.256 372.68 404.401 362.58 409.64 353.771C414.687 345.303 420.655 338.335 426.911 333.608C433.359 328.747 439.922 326.26 446.409 326.26C456.445 326.26 463.968 331.253 480.433 349.765C475.06 346.024 469.456 344.126 463.699 344.126C456.215 344.126 448.961 347.334 442.168 353.676C435.643 359.751 429.79 368.428 424.762 379.458C414.514 401.975 408.834 431.84 408.757 463.641Z" fill="#FFCF2D"/>
<path d="M402.194 464.249L403.345 464.135C402.021 450.75 401.714 437.726 402.424 425.423C403.096 413.879 404.689 402.906 407.145 392.824C411.712 374.085 419.158 358.669 428.696 348.265C436.813 339.398 445.967 334.709 455.14 334.709C462.24 334.709 466.29 336.759 472.68 341.354L473.352 340.424C466.75 335.677 462.547 333.551 455.121 333.551C445.602 333.551 436.18 338.373 427.832 347.467C418.16 358.023 410.618 373.611 406.013 392.539C403.537 402.697 401.944 413.728 401.254 425.347C400.544 437.726 400.851 450.807 402.194 464.249Z" fill="#FFCF2D"/>
<path d="M402.693 464.192C402.693 464.192 401.042 402.203 435.182 401.994C444.221 401.937 452.684 416.12 452.684 416.12C452.684 416.12 412.71 405.791 410.734 464.192H402.693Z" fill="white"/>
<path d="M402.136 464.761H411.29L411.309 464.21C412 443.535 417.527 429.239 427.698 421.72C433.628 417.335 440.057 416.196 444.394 416.006C449.134 415.797 452.492 416.651 452.53 416.651L453.874 416.993L453.164 415.797C453.068 415.645 450.976 412.152 447.733 408.62C443.338 403.817 439.116 401.387 435.221 401.387C435.201 401.387 435.182 401.387 435.163 401.387C428.254 401.425 422.267 403.988 417.374 408.981C413.631 412.797 410.503 418.094 408.066 424.701C406.128 429.96 404.631 436.074 403.595 442.871C401.849 454.414 402.079 464.078 402.079 464.173L402.136 464.761ZM410.177 463.622H403.269C403.25 461.42 403.288 452.933 404.785 443.041C406.378 432.523 410.004 418.208 418.237 409.797C422.9 405.032 428.6 402.602 435.201 402.564C435.221 402.564 435.24 402.564 435.259 402.564C442.379 402.564 449.306 412 451.494 415.284C450.055 415.037 447.541 414.734 444.413 414.867C439.903 415.056 433.206 416.234 427.045 420.79C416.644 428.46 410.964 442.871 410.177 463.622Z" fill="#3FB1B5"/>
<path d="M406.301 464.4L407.452 464.362C407.356 460.565 407.376 450.597 409.851 439.908C412.365 429.086 416.568 420.809 422.344 415.322C428.37 409.588 436.103 406.987 445.315 407.595L445.392 406.455C435.835 405.829 427.813 408.544 421.557 414.505C415.627 420.163 411.31 428.612 408.738 439.661C406.224 450.483 406.205 460.565 406.301 464.4Z" fill="#3FB1B5"/>
<path d="M452.837 357.322C451.089 357.322 449.671 355.919 449.671 354.189C449.671 352.459 451.089 351.057 452.837 351.057C454.586 351.057 456.004 352.459 456.004 354.189C456.004 355.919 454.586 357.322 452.837 357.322Z" fill="white"/>
<path d="M452.837 357.891C454.91 357.891 456.58 356.239 456.58 354.189C456.58 352.138 454.91 350.486 452.837 350.486C450.765 350.486 449.095 352.138 449.095 354.189C449.095 356.239 450.765 357.891 452.837 357.891ZM452.837 351.625C454.258 351.625 455.428 352.784 455.428 354.189C455.428 355.593 454.258 356.752 452.837 356.752C451.417 356.752 450.247 355.593 450.247 354.189C450.247 352.784 451.417 351.625 452.837 351.625Z" fill="#FFCF2D"/>
<path d="M378.206 446.915C375.652 446.915 373.581 444.866 373.581 442.339C373.581 439.812 375.652 437.764 378.206 437.764C380.76 437.764 382.831 439.812 382.831 442.339C382.831 444.866 380.76 446.915 378.206 446.915Z" fill="white"/>
<path d="M378.206 447.484C381.066 447.484 383.407 445.167 383.407 442.339C383.407 439.51 381.066 437.193 378.206 437.193C375.347 437.193 373.006 439.51 373.006 442.339C373.006 445.167 375.347 447.484 378.206 447.484ZM378.206 438.333C380.432 438.333 382.255 440.136 382.255 442.339C382.255 444.541 380.432 446.345 378.206 446.345C375.98 446.345 374.157 444.541 374.157 442.339C374.157 440.136 375.98 438.333 378.206 438.333Z" fill="#FFCF2D"/>
<path d="M385.882 358.65C381.06 358.65 377.151 354.782 377.151 350.012C377.151 345.241 381.06 341.373 385.882 341.373C390.705 341.373 394.614 345.241 394.614 350.012C394.614 354.782 390.705 358.65 385.882 358.65Z" fill="#D0F0E4"/>
<path d="M363.506 546.286L371.24 508.181C371.547 506.662 372.737 505.941 373.754 505.77C374.771 505.599 376.134 505.884 376.94 507.213C379.53 511.485 383.368 514.978 388.032 517.313C392.407 519.516 397.454 520.693 402.597 520.712C407.759 520.731 412.806 519.592 417.22 517.427C421.922 515.111 425.798 511.637 428.427 507.384L428.619 507.061C429.425 505.751 430.807 505.485 431.805 505.656C432.803 505.827 433.992 506.567 434.299 508.067L442.052 546.286L443.185 546.058L435.432 507.839C435.086 506.112 433.781 504.859 432.016 504.536C430.25 504.232 428.581 504.973 427.64 506.473L427.449 506.814C424.935 510.877 421.212 514.2 416.721 516.421C412.48 518.509 407.587 519.611 402.616 519.592C397.646 519.573 392.791 518.434 388.569 516.307C384.098 514.048 380.432 510.706 377.938 506.624C377.016 505.106 375.347 504.346 373.562 504.65C371.797 504.954 370.472 506.226 370.127 507.972L362.393 546.077L363.506 546.286Z" fill="#66B0F0"/>
<path d="M402.194 520.162H403.345V546.343H402.194V520.162Z" fill="#66B0F0"/>
<path d="M202.941 545.602H460.168V546.741H202.941V545.602Z" fill="#66B0F0"/>
<path d="M246.697 287.756H334.572C336.932 287.756 339.042 286.342 339.918 284.186L363.965 225.44C365.109 222.63 363.017 219.555 359.96 219.555H272.085C269.725 219.555 267.615 220.969 266.739 223.125L242.692 281.871C241.53 284.681 243.621 287.756 246.697 287.756Z" fill="white"/>
<path fill-rule="evenodd" clip-rule="evenodd" d="M363.467 225.242C363.467 225.243 363.467 225.243 363.467 225.243L339.42 283.989C338.625 285.945 336.713 287.227 334.572 287.227H246.696C244.002 287.227 242.171 284.533 243.188 282.072L267.236 223.324L267.237 223.323C268.031 221.368 269.944 220.086 272.085 220.086H359.96C362.635 220.086 364.47 222.779 363.467 225.242ZM364.462 225.639C365.748 222.483 363.4 219.025 359.96 219.025H272.085C269.505 219.025 267.199 220.571 266.241 222.928L242.195 281.671C240.888 284.831 243.241 288.287 246.696 288.287H334.572C337.151 288.287 339.458 286.741 340.415 284.384L364.462 225.639Z" fill="#FE5244"/>
<path d="M250.773 288.18H334.607C336.842 288.18 338.863 286.837 339.703 284.787L362.642 228.745C363.732 226.059 361.748 223.143 358.816 223.143H274.981C272.746 223.143 270.726 224.486 269.885 226.536L246.947 282.578C245.856 285.264 247.859 288.18 250.773 288.18Z" fill="#FE5244"/>
<path d="M302.246 262.696C304.713 262.696 307.038 261.742 308.79 260.01C310.22 258.596 311.007 256.722 311.007 254.743C311.007 252.746 310.22 250.873 308.79 249.476C307.628 248.328 306.072 247.691 304.427 247.691C302.783 247.691 301.227 248.328 300.065 249.476C298.08 251.438 298.08 254.619 300.065 256.581C301.71 258.207 304.374 258.207 306.019 256.581C306.305 256.298 306.305 255.856 306.019 255.574C305.733 255.291 305.286 255.291 305 255.574C303.909 256.652 302.157 256.652 301.066 255.574C299.636 254.16 299.636 251.88 301.066 250.466C301.96 249.582 303.158 249.088 304.427 249.088C305.697 249.088 306.895 249.582 307.789 250.466C308.951 251.615 309.577 253.117 309.577 254.743C309.577 256.351 308.933 257.871 307.789 259.02C306.305 260.487 304.356 261.282 302.264 261.282C300.172 261.282 298.206 260.487 296.739 259.02C296.453 258.737 296.006 258.737 295.72 259.02C295.434 259.303 295.434 259.745 295.72 260.027C297.455 261.742 299.779 262.696 302.246 262.696Z" fill="white"/>
<path d="M215.248 293.978H334.465C335.841 293.978 336.95 292.882 336.95 291.522V290.337C336.95 288.977 335.841 287.881 334.465 287.881H215.248C213.871 287.881 212.762 288.977 212.762 290.337V291.522C212.78 292.882 213.889 293.978 215.248 293.978Z" fill="white"/>
<path fill-rule="evenodd" clip-rule="evenodd" d="M334.464 288.412C335.545 288.412 336.413 289.27 336.413 290.338V291.522C336.413 292.591 335.545 293.449 334.464 293.449H215.247C214.19 293.449 213.314 292.594 213.298 291.519V290.338C213.298 289.27 214.167 288.412 215.247 288.412H334.464ZM337.486 290.338C337.486 288.685 336.137 287.352 334.464 287.352H215.247C213.574 287.352 212.226 288.685 212.226 290.338V291.526L212.226 291.529C212.247 293.174 213.588 294.509 215.247 294.509H334.464C336.137 294.509 337.486 293.176 337.486 291.522V290.338Z" fill="#FE5244"/>
</svg>
